<?xml version="1.0" encoding="utf-8" ?>
<svg xmlns="http://www.w3.org/2000/svg" xmlns:xlink="http://www.w3.org/1999/xlink" width="1596" height="1000">
	<path fill="#FEFEFE" d="M951.238 320.399C980.272 395.13 1007.45 470.644 1035.59 545.72C1044.32 569.014 1115.75 754.601 1115.55 762.872C1115.55 763.016 1115.55 763.16 1115.55 763.304C1109.79 768.259 1003.68 806.133 988.638 811.762C921.814 836.773 855.235 862.734 788.138 886.95C810.746 926.001 838.173 962.475 864.19 999.299L722.116 999.353C706.978 975.382 692.772 950.714 676.622 927.404C667.976 914.925 659.09 902.459 649.871 890.399C623.488 855.886 596.246 821.223 590.621 776.549C588.236 757.602 590.152 738.239 590.565 719.228C590.857 705.812 590.088 692.289 590.986 678.9C593.164 646.39 608.721 617.273 628.468 591.927C618.851 563.972 607.8 536.211 597.153 508.626C590.934 492.512 584.295 476.503 579.478 459.9C611.629 447.04 644.348 435.419 676.839 423.44C676.706 417.17 671.396 407.817 668.98 401.806C691.52 391.141 716.38 383.602 739.885 375.263C739.029 370.87 738.382 367.018 739.626 362.634C741.051 357.61 744.176 353.291 748.836 350.833C752.73 348.818 757.269 348.451 761.436 349.812C767.916 351.959 771.175 356.788 774.11 362.603C797.805 353.096 821.724 344.157 845.847 335.795C848.088 342.945 850.558 349.944 853.236 356.942C886.029 345.101 918.698 332.919 951.238 320.399Z"/>
	<path fill="#FAA97A" d="M628.468 591.927C634.785 608.715 640.718 625.773 647.482 642.378C651.896 655.165 656.608 667.848 661.614 680.416C660.509 682.858 659.194 685.466 658.909 688.155C657.954 697.15 659.601 707.204 659.88 716.294C660.312 730.382 660.013 744.547 659.952 758.641C671.204 765.123 682.114 768.522 695.158 769.205C702.134 766.493 708.36 763.74 714.373 759.238C716.681 757.579 718.316 755.68 720.126 753.516C733.869 737.859 735.152 713.762 739.904 694.308C742.216 684.84 745.337 675.726 748.668 666.577L755.762 650.843C758.367 645.946 761.31 641.46 764.458 636.904C769.757 633.889 775.049 632.245 780.947 630.867C786.279 631.881 791.412 633.405 796.306 635.786C799.674 639.062 801.803 641.686 803.189 646.261C797.406 667.879 793.439 689.529 790.526 711.701L788.098 725.784C787.473 729.632 786.785 733.48 786.23 737.338L784.221 751.258L782.724 762.393C781.989 767.065 781.202 771.729 780.36 776.383C777.518 801.751 777.217 827.127 781.171 852.428L782.298 861.576C783.773 869.361 784.679 879.842 788.138 886.95C810.746 926.001 838.173 962.475 864.19 999.299L722.116 999.353C706.978 975.382 692.772 950.714 676.622 927.404C667.976 914.925 659.09 902.459 649.871 890.399C623.488 855.886 596.246 821.223 590.621 776.549C588.236 757.602 590.152 738.239 590.565 719.228C590.857 705.812 590.088 692.289 590.986 678.9C593.164 646.39 608.721 617.273 628.468 591.927Z"/>
	<path fill="#EB9F73" d="M647.482 642.378C651.896 655.165 656.608 667.848 661.614 680.416C660.509 682.858 659.194 685.466 658.909 688.155C657.954 697.15 659.601 707.204 659.88 716.294C660.312 730.382 660.013 744.547 659.952 758.641C653.709 754.452 647.582 749.333 644.634 742.219C638.127 726.516 636.282 678.258 639.857 661.23C641.253 654.579 644.87 649.003 647.326 642.782L647.482 642.378Z"/>
	<path fill="#4B4A4B" d="M951.238 320.399C980.272 395.13 1007.45 470.644 1035.59 545.72C1044.32 569.014 1115.75 754.601 1115.55 762.872C1115.55 763.016 1115.55 763.16 1115.55 763.304C1109.79 768.259 1003.68 806.133 988.638 811.762C921.814 836.773 855.235 862.734 788.138 886.95C784.679 879.842 783.773 869.361 782.298 861.576L781.171 852.428C814.961 837.166 1070.35 747.252 1075.43 741.158C1076.21 738.966 1075.57 737.156 1074.89 735.033C1070.18 720.473 1064.24 706.218 1058.86 691.889L1028.84 611.736L935.934 363.611C912.853 373.167 889.215 381.452 865.77 390.066L864.014 385.073L862.893 381.678L861.617 377.916L859.285 371.721C857.366 366.749 855.487 361.776 853.236 356.942C886.029 345.101 918.698 332.919 951.238 320.399Z"/>
	<path fill="#FBCA12" d="M862.893 381.678C888.455 371.718 914.135 362.065 939.928 352.722L1037.23 612.682L1066.75 691.479C1072.6 706.944 1078.89 722.333 1084.25 737.97C1085.27 740.964 1086.49 743.789 1085.98 747.011C1081.33 751.737 1036.31 766.508 1027.29 769.868L863.945 830.871L814.161 849.38C803.584 853.285 792.575 856.942 782.298 861.576L781.171 852.428C814.961 837.166 1070.35 747.252 1075.43 741.158C1076.21 738.966 1075.57 737.156 1074.89 735.033C1070.18 720.473 1064.24 706.218 1058.86 691.889L1028.84 611.736L935.934 363.611C912.853 373.167 889.215 381.452 865.77 390.066L864.014 385.073L862.893 381.678Z"/>
	<path fill="#4B4A4B" d="M579.478 459.9C611.629 447.04 644.348 435.419 676.839 423.44C678.453 428.519 680.911 433.501 682.044 438.691C683.081 440.691 684.048 442.786 685.238 444.698L685.695 447.62L687.756 452.054L689.075 456.203C665.579 464.664 642.183 473.399 618.891 482.407L685.272 659.872L707.462 719.057C711.754 730.473 716.496 741.877 720.126 753.516C718.316 755.68 716.681 757.579 714.373 759.238C708.36 763.74 702.134 766.493 695.158 769.205C682.114 768.522 671.204 765.123 659.952 758.641C660.013 744.547 660.312 730.382 659.88 716.294C659.601 707.204 657.954 697.15 658.909 688.155C659.194 685.466 660.509 682.858 661.614 680.416C656.608 667.848 651.896 655.165 647.482 642.378C640.718 625.773 634.785 608.715 628.468 591.927C618.851 563.972 607.8 536.211 597.153 508.626C590.934 492.512 584.295 476.503 579.478 459.9Z"/>
	<path fill="#FBCA12" d="M685.695 447.62L687.756 452.054L689.075 456.203C665.579 464.664 642.183 473.399 618.891 482.407L685.272 659.872L707.462 719.057C711.754 730.473 716.496 741.877 720.126 753.516C718.316 755.68 716.681 757.579 714.373 759.238C698.973 719.193 683.931 679.011 669.248 638.698L608.712 476.275C634.692 467.873 660.243 457.511 685.695 447.62Z"/>
	<path fill="#DC956C" d="M661.614 680.416L682.047 735.654C686.184 746.801 689.855 758.568 695.158 769.205C682.114 768.522 671.204 765.123 659.952 758.641C660.013 744.547 660.312 730.382 659.88 716.294C659.601 707.204 657.954 697.15 658.909 688.155C659.194 685.466 660.509 682.858 661.614 680.416Z"/>
	<path fill="#A9AAA9" d="M774.11 362.603C797.805 353.096 821.724 344.157 845.847 335.795C848.088 342.945 850.558 349.944 853.236 356.942C855.487 361.776 857.366 366.749 859.285 371.721L861.617 377.916L862.893 381.678L864.014 385.073C822.992 401.379 781.313 416.476 739.916 431.833C724.799 437.441 700.563 443.638 687.756 452.054L685.695 447.62L685.238 444.698C684.048 442.786 683.081 440.691 682.044 438.691C680.911 433.501 678.453 428.519 676.839 423.44C676.706 417.17 671.396 407.817 668.98 401.806C691.52 391.141 716.38 383.602 739.885 375.263C739.029 370.87 738.382 367.018 739.626 362.634C741.051 357.61 744.176 353.291 748.836 350.833C752.73 348.818 757.269 348.451 761.436 349.812C767.916 351.959 771.175 356.788 774.11 362.603Z"/>
	<path fill="#A9AAA9" d="M861.617 377.916L862.893 381.678L864.014 385.073C822.992 401.379 781.313 416.476 739.916 431.833C724.799 437.441 700.563 443.638 687.756 452.054L685.695 447.62L685.238 444.698C693.465 439.25 718.54 431.728 729.135 427.76L812.983 396.322C829.19 390.254 845.62 384.514 861.617 377.916Z"/>
	<path fill="#FEFEFE" d="M859.285 371.721L861.617 377.916C845.62 384.514 829.19 390.254 812.983 396.322L729.135 427.76C718.54 431.728 693.465 439.25 685.238 444.698C684.048 442.786 683.081 440.691 682.044 438.691C685.984 435.238 841.026 378.514 859.285 371.721Z"/>
	<path fill="#FEFEFE" d="M752.647 358.966C755.684 357.547 759.257 357.921 761.936 359.937C764.614 361.953 765.962 365.283 765.439 368.596C764.917 371.908 762.61 374.661 759.44 375.755C754.881 377.328 749.888 375.056 748.079 370.584C746.27 366.113 748.277 361.007 752.647 358.966Z"/>
	<path fill="#979797" d="M864.014 385.073L865.77 390.066C868.494 396.363 874.842 408.05 872.22 414.954C870.695 418.969 849.254 426.328 844.605 428.129C821.205 437.192 797.437 445.271 774.026 454.306C752.102 462.769 729.531 473.033 706.752 478.875C704.55 479.44 702.808 480.02 700.648 479.058C695.978 476.978 693.463 469.517 691.946 465.064C690.956 462.121 689.999 459.167 689.075 456.203L687.756 452.054C700.563 443.638 724.799 437.441 739.916 431.833C781.313 416.476 822.992 401.379 864.014 385.073Z"/>
	<path fill="#A9AAA9" d="M712.479 642.988L888.79 576.851C890.476 580.662 891.777 584.7 893.206 588.616C873.01 595.609 853.176 603.506 833.159 610.981C815.696 617.503 798.081 623.495 780.947 630.867C775.049 632.245 769.757 633.889 764.458 636.904C748.436 642.434 732.636 648.664 716.733 654.532L712.479 642.988Z"/>
	<path fill="#A9AAA9" d="M782.724 762.393L880.107 726.052C898.947 719.104 918.238 712.649 936.671 704.683L941.283 716.359L836.222 755.664C817.66 762.595 799.153 770.158 780.36 776.383C781.202 771.729 781.989 767.065 782.724 762.393Z"/>
	<path fill="#A9AAA9" d="M786.23 737.338C833.308 718.32 881.898 703.013 928.795 683.651L933.265 695.283L833.934 732.523C817.457 738.709 800.378 744.329 784.221 751.258L786.23 737.338Z"/>
	<path fill="#A9AAA9" d="M790.526 711.701C833.814 694.718 877.335 678.336 921.077 662.559L925.31 674.267L837.612 706.976C821.165 713.069 803.999 718.381 788.098 725.784L790.526 711.701Z"/>
	<path fill="#A9AAA9" d="M796.306 635.786C829.694 622.782 863.553 611.045 896.888 597.914L901.252 609.619L803.189 646.261C801.803 641.686 799.674 639.062 796.306 635.786Z"/>
	<path fill="#A9AAA9" d="M720.176 664.025C731.991 659.503 743.853 655.109 755.762 650.843L748.668 666.577C740.835 670.049 732.685 672.737 724.597 675.543L720.176 664.025Z"/>
	<path fill="#4B4A4B" d="M999.514 628.111C1000.72 628.632 1001.01 628.904 1001.78 629.99C1005.65 635.433 1023.64 684.067 1022.64 689.68C1018.12 695.051 973.493 709.05 963.45 712.585C957.131 704.564 944.126 663.564 939.664 651.208C959.208 643.221 980.81 637.747 999.514 628.111Z"/>
	<path fill="#FEFEFE" d="M995.846 636.791C997.029 636.994 997.549 637.334 998.201 638.387C1002.07 644.632 1015.79 680.621 1014.56 686C1010.34 691.042 975.457 701.52 967.044 704.528C963.258 701.41 950.365 662.107 947.669 654.694C963.886 649.228 979.844 642.857 995.846 636.791Z"/>
	<path fill="#4B4A4B" d="M959.995 521.482C965.377 526.19 980.842 572.913 984.504 583.037C964.283 590.295 944.166 597.838 924.159 605.664C923.996 605.611 923.818 605.592 923.669 605.506C919.021 602.825 902.482 552.581 899.465 544.23L959.995 521.482Z"/>
	<path fill="#FEFEFE" d="M957.285 529.358C965.474 542.67 971.13 564.09 976.441 579.153L926.404 597.871L907.835 547.865C924.436 542.14 940.836 535.527 957.285 529.358Z"/>
	<path fill="#4B4A4B" d="M920.215 414.635C925.054 417.56 941.323 467.301 944.478 476.245L883.929 498.832C879.982 496.36 862.686 445.402 859.724 437.241C880.19 430.621 900.184 422.449 920.215 414.635Z"/>
	<path fill="#FEFEFE" d="M915.402 423.257L916.845 423.429C922.783 428.547 933.101 462.789 936.494 472.434L888.585 490.319C887.935 490.277 887.214 489.977 886.587 489.791C881.073 481.728 871.846 452.138 867.789 441.09C883.755 435.402 899.628 429.457 915.402 423.257Z"/>
	<path fill="#A9AAA9" d="M848.328 470.055C850.895 473.011 852.065 478.089 853.29 481.766L677.424 547.353C674.731 544.176 673.718 539.938 672.487 536.039C730.724 513.032 790.163 493.198 848.328 470.055Z"/>
	<path fill="#A9AAA9" d="M856.11 491.159C858.811 493.989 859.959 499.175 861.145 502.864C838.853 510.866 816.663 519.15 794.58 527.711L685.339 568.873C682.644 565.898 681.528 560.872 680.308 557.11C701.32 550.888 721.977 541.713 742.508 533.975L856.11 491.159Z"/>
	<path fill="#A9AAA9" d="M878.735 556.409C879.492 556.275 880.081 556.518 880.817 556.7C883.227 559.807 884.178 563.881 885.347 567.586C865.92 574.15 846.727 581.97 827.504 589.141L710.947 632.623C710.231 632.805 709.678 632.515 708.974 632.332C706.626 629.353 705.715 625.346 704.589 621.771C762.512 599.715 821.203 579.456 878.735 556.409Z"/>
	<path fill="#A9AAA9" d="M840.533 449.036C842.966 452.308 844.118 456.796 845.36 460.638C786.378 481.235 728.222 504.691 669.598 526.34C666.805 523.307 665.785 518.9 664.542 515.049L840.533 449.036Z"/>
	<path fill="#FEFEFE" d="M327.147 74.3475C441.392 64.6977 541.822 149.517 551.448 263.783C561.073 378.049 476.248 478.478 361.999 488.082C247.782 497.684 147.403 412.874 137.78 298.64C128.157 184.407 212.933 83.9946 327.147 74.3475Z"/>
	<path fill="#6A5193" d="M216.09 161.232L222.82 160.856C226.969 171.838 227.661 183.614 230.198 194.98C248.617 189.628 268.609 183.685 288.063 186.574C290.602 189.775 293.315 193.433 297.654 194.116C299.492 194.406 301.444 194.151 303.228 193.683C307.914 195.918 312.544 198.144 317.025 200.778C334.659 240.744 333.968 243.761 372.222 265.928L369.606 274.087C357.88 271.663 345.704 269.419 334.649 264.663C323.583 259.902 314.286 252.075 309.767 240.698L308.599 240.3L307.566 242.273C305.138 254.235 305.051 267.4 304.158 279.592C295.576 284.053 288.125 287.592 278.293 288.251L276.717 288.605C262.059 287.549 260.143 285.886 247.199 280.851C246.498 274.488 249.743 223.921 251.024 219.326L250.747 217.368C248.446 215.585 232.222 217.593 227.645 217.244C222.447 216.848 216.151 215.564 212.72 211.242C206.774 203.75 213.223 172.887 214.576 162.736L214.276 160.986L216.09 161.232Z"/>
	<path fill="#36526C" d="M214.576 162.736C216.334 168.482 215.82 175.84 215.964 181.885C215.678 191.419 214.93 201.049 215.133 210.579C221.177 211.767 244.917 217.086 250.146 213.912C252.421 212.531 253.813 205.005 254.729 202.346C254.175 208.031 254.088 215.139 251.511 220.281L251.024 219.326L250.747 217.368C248.446 215.585 232.222 217.593 227.645 217.244C222.447 216.848 216.151 215.564 212.72 211.242C206.774 203.75 213.223 172.887 214.576 162.736Z"/>
	<path fill="#424E76" d="M250.727 235.46C265.687 235.882 281.778 241.651 296.551 239.704C307.509 238.261 303.157 233.025 307.978 226.588C309.194 228.3 308.555 233.458 308.549 235.737C315.494 243.963 322.142 253.148 331.351 258.914C332.392 259.566 332.906 259.891 333.47 261.043L332.107 261.623C323.276 259.396 317.283 246.286 310.22 241.02C310.072 240.91 309.918 240.805 309.767 240.698L308.599 240.3L307.566 242.273C306.774 241.465 305.727 240.26 304.612 239.92C302 239.125 295.668 240.457 292.803 240.673C279.139 241.703 263.326 241.158 250.727 235.46Z"/>
	<path fill="#424E76" d="M214.276 160.986L216.09 161.232C216.861 167.673 217.301 175.519 215.964 181.885C215.82 175.84 216.334 168.482 214.576 162.736L214.276 160.986Z"/>
	<path fill="#36526C" d="M253.591 229.445C267.595 228.226 286.629 233.856 301.778 234.196C287.786 235.768 266.557 235.609 253.591 229.445Z"/>
	<path fill="#424E76" d="M338.467 263.384C340.335 263.511 342.195 263.734 344.039 264.054C347.962 264.771 354.531 266.028 356.891 269.514C350.565 268.612 344.332 265.829 338.467 263.384Z"/>
	<path fill="#6A5193" d="M442.175 265.041C451.425 263.482 472.533 259.614 480.412 265.438C481.584 266.304 481.799 267.147 482.39 268.441C482.247 271.377 480.415 274.377 480.519 277.047C480.698 281.617 484.967 282.629 481.048 287.155C478.491 287.992 475.414 288.149 473.799 290.294C474.257 293.454 475.183 296.039 473.87 299.004C471.176 300.686 468.347 301.201 466.534 303.808C466.332 306.639 466.746 309.247 465.176 311.637C462.19 313.362 457.986 313.309 454.571 313.634C453.911 317.183 453.676 322.241 450.489 324.433C449.437 325.157 448.512 325.194 447.259 324.956C446.217 324.758 445.167 324.352 444.164 324.009C441.564 325.028 440.728 326.73 439.053 328.894C437.879 330.41 436.777 331.548 434.804 331.862C433.126 332.13 431.345 332.062 429.65 332.078C427.047 332.105 425.58 332.907 423.433 334.286C421.788 334.819 420.076 335.419 418.364 335.689C413.642 336.432 409.445 332.458 405.881 329.843C402.891 331.807 400.136 333.388 396.767 334.607L395.208 332.544C394.291 330.666 394.287 330.149 392.374 329.165C389.891 329.641 388.731 331.055 387.018 332.769C384.541 332.955 381.846 333.622 379.624 332.297C378.398 329.227 377.309 326.925 374.143 325.433C372.636 324.724 371.464 324.036 370.157 323.006C369.204 320.744 369.127 318.868 369.784 316.487C373.742 302.148 393.405 286.018 405.876 278.928C419.263 276.293 430.356 271.827 442.175 265.041Z"/>
	<path fill="#36526C" d="M428.958 286.506C435.031 291.394 437.678 305.332 439.751 312.824C433.765 307.94 431.08 293.936 428.958 286.506Z"/>
	<path fill="#424E76" d="M448.726 283.688C454.554 287.143 459.806 293.684 464.285 298.736C463.66 298.528 463.03 298.337 462.427 298.067C457.258 295.757 450.889 288.888 448.726 283.688Z"/>
	<path fill="#424E76" d="M391.715 303.838C392.163 308.735 385.092 316.036 382.18 319.742L381.986 317.987C383.843 312.408 387.883 308.15 391.715 303.838Z"/>
	<path fill="#424E76" d="M452.936 272.371C459.372 271.405 468.263 272.154 474.253 274.767C468.329 275.603 458.223 275.18 452.936 272.371Z"/>
	<path fill="#424E76" d="M423.967 301.289C427.085 306.466 426.27 316.215 425.981 322.067C422.987 318.379 423.856 306.262 423.967 301.289Z"/>
	<path fill="#424E76" d="M403.907 302.222C404.928 306.375 399.391 314.551 397.41 318.281L396.907 316.776C398.189 311.345 400.795 306.804 403.907 302.222Z"/>
	<path fill="#424E76" d="M444.59 274.998C449.341 275.199 452.32 277.253 456.089 279.883C451.689 279.842 448.117 277.352 444.59 274.998Z"/>
	<path fill="#A9AAA9" d="M387.018 332.769C388.731 331.055 389.891 329.641 392.374 329.165C394.287 330.149 394.291 330.666 395.208 332.544L396.767 334.607C400.136 333.388 402.891 331.807 405.881 329.843C409.445 332.458 413.642 336.432 418.364 335.689C420.076 335.419 421.788 334.819 423.433 334.286C420.083 342.733 416.932 351.337 413.247 359.642L477.17 404.98L472.041 412.69C444.093 403.473 416.366 394.592 389.544 382.343C377.343 402.351 365.554 422.923 352.276 442.234L345.537 439.002C353.34 413.742 362.905 389.167 373.045 364.762C377.433 354.201 384.569 343.915 387.018 332.769Z"/>
	<path fill="#06594D" d="M395.208 332.544L396.767 334.607C388.913 345.203 382.186 362.442 382.674 375.6C384.102 377.144 387.088 379.825 387.151 381.876C384.735 380.48 382.802 378.331 381.9 375.659C377.408 362.35 389.284 344.192 395.208 332.544Z"/>
	<path fill="#F88294" d="M278.293 288.251C288.125 287.592 295.576 284.053 304.158 279.592C316.344 316.737 330.28 343.731 324.6 383.902C322.695 397.378 318.189 410.988 316.884 424.418C313.581 423.754 310.296 423.008 307.031 422.178C304.549 399.043 307.836 373.214 299.407 351.2C294.114 337.376 285.795 324.741 279.461 311.372L272.622 311.516L272.205 309.959C272.959 309.54 273.844 309.102 274.484 308.523C277.099 306.156 276.642 292.636 276.717 288.605L278.293 288.251Z"/>
	<path fill="#835860" d="M276.717 288.605L278.293 288.251C277.347 293.698 275.431 302.429 278.766 307.287C279.719 308.676 281.373 309.29 282.884 309.873L279.461 311.372L272.622 311.516L272.205 309.959C272.959 309.54 273.844 309.102 274.484 308.523C277.099 306.156 276.642 292.636 276.717 288.605Z"/>
	<path fill="#796E7F" d="M296.21 291.281C300.569 293.375 305.433 298.029 309.336 301.017C309.037 300.974 308.737 300.941 308.44 300.888C303.239 299.953 299.145 295.302 296.21 291.281Z"/>
	<path fill="#F88294" d="M475.503 193.901L479.951 198.115C470.081 213.201 459.508 226.07 443.7 235.252L443.293 235.836C442.565 245.566 442.533 255.297 442.175 265.041C430.356 271.827 419.263 276.293 405.876 278.928L406.969 267.876L406.594 260.129C403.829 248.465 401.061 234.786 406.47 223.48C408.224 219.814 410.896 216.648 412.771 213.037L412.99 212.605C414.768 211.414 416.446 210.682 418.465 209.982L418.884 208.327L428.85 204.141L429.434 204.67C434.395 204.748 439.213 204.78 444.03 203.463C455.299 204.09 464.915 196.733 475.503 193.901Z"/>
	<path fill="#835860" d="M424.266 230.157C419.776 226.682 413.987 225.851 409.338 222.718C410.063 221.781 410.216 222.094 411.29 222.396C419.467 224.699 425.731 230.653 435.046 227C437.38 226.085 437.509 225.126 438.32 222.945C440.55 226.721 442.026 231.193 443.7 235.252L443.293 235.836L435.571 240.432C430.213 238.325 412.349 235.25 409.414 231.939C417.515 231.073 430.393 240.81 438.174 237.107C440.007 236.234 440.408 235.342 441.184 233.614C440.873 231.995 440.619 231.135 439.167 230.18C434.717 227.254 429.01 229.102 424.266 230.157Z"/>
	<path fill="#06594D" d="M418.884 208.327L428.85 204.141L429.434 204.67C425.986 208.008 423.178 209.242 418.465 209.982L418.884 208.327Z"/>
	<path fill="#F88294" d="M247.199 280.851C260.143 285.886 262.059 287.549 276.717 288.605C276.642 292.636 277.099 306.156 274.484 308.523C273.844 309.102 272.959 309.54 272.205 309.959L272.622 311.516C273.888 323.773 266.043 341.074 263.516 353.23C269.616 364.877 275.628 376.569 281.553 388.306C278.762 389.423 276.006 390.498 273.386 391.983C261.582 384.678 249.406 371.735 242.504 359.708C231.422 340.397 238.534 317.699 243.787 297.732L243.86 297.142C245.199 291.729 246.56 286.403 247.199 280.851Z"/>
	<path fill="#36526C" d="M243.86 297.142C248.747 293.173 253.244 288.893 257.764 284.518C255.042 288.958 250.94 296.386 245.448 297.668C244.459 297.899 244.698 297.854 243.787 297.732L243.86 297.142Z"/>
	<path fill="#6A5193" d="M397.652 178.137C400.18 173.531 404.725 166.371 410.133 164.792C413.235 163.886 416.373 164.921 419.04 166.54C431.513 174.109 428.114 180.892 445.477 178.313C448.413 180.174 451.356 181.959 453.979 184.256C449.935 186.615 446.085 188.55 444.867 193.479C444.105 196.563 444.201 200.286 444.03 203.463C439.213 204.78 434.395 204.748 429.434 204.67L428.85 204.141L418.884 208.327L418.465 209.982C416.446 210.682 414.768 211.414 412.99 212.605C409.944 211.498 406.404 209.845 403.203 209.378C398.424 208.681 391.368 210.106 387.084 207.973C385.514 207.192 385.478 206.518 384.9 205.03C385.508 198.217 390.829 192.844 394.853 187.715C395.225 184.489 396.61 181.214 397.652 178.137Z"/>
	<path fill="#FAA97A" d="M397.652 178.137C400.235 178.557 401.131 178.58 403.159 180.366C405.157 185.798 405.316 189.542 411.121 192.272C418.967 195.962 423.266 197.104 428.85 204.141L418.884 208.327L418.465 209.982C416.446 210.682 414.768 211.414 412.99 212.605C409.944 211.498 406.404 209.845 403.203 209.378C398.424 208.681 391.368 210.106 387.084 207.973C385.514 207.192 385.478 206.518 384.9 205.03C385.508 198.217 390.829 192.844 394.853 187.715C395.225 184.489 396.61 181.214 397.652 178.137Z"/>
	<path fill="#6A5193" d="M394.853 187.715C396.751 192.932 398.26 198.419 403.604 201.164C410.681 204.8 414.114 199.08 418.884 208.327L418.465 209.982C416.446 210.682 414.768 211.414 412.99 212.605C409.944 211.498 406.404 209.845 403.203 209.378C398.424 208.681 391.368 210.106 387.084 207.973C385.514 207.192 385.478 206.518 384.9 205.03C385.508 198.217 390.829 192.844 394.853 187.715Z"/>
	<path fill="#FAA97A" d="M296.039 173.943C294.723 168.861 293.215 161.988 296.03 157.153C297.077 155.354 298.813 154.106 300.823 153.591C307.953 151.763 319.471 159.066 325.36 162.601C327.331 163.785 328.21 163.972 328.797 166.311L327.821 167.913C325.843 169.158 324.296 169.329 322.034 169.43L321.224 169.463C320.706 175.034 320.88 181.009 316.28 184.948C312.243 188.405 306.497 189.371 303.228 193.683C301.444 194.151 299.492 194.406 297.654 194.116C293.315 193.433 290.602 189.775 288.063 186.574C292.516 183.374 295.133 179.318 296.039 173.943Z"/>
	<path fill="#A9AAA9" d="M296.039 173.943C294.723 168.861 293.215 161.988 296.03 157.153C297.077 155.354 298.813 154.106 300.823 153.591C307.953 151.763 319.471 159.066 325.36 162.601C327.331 163.785 328.21 163.972 328.797 166.311L327.821 167.913C325.843 169.158 324.296 169.329 322.034 169.43L321.224 169.463C315.333 168.64 310.364 166.993 305.074 164.305C302.096 167.399 298.582 170.501 296.039 173.943Z"/>
	<path fill="#FAA97A" d="M406.594 260.129L406.969 267.876C404.194 269.738 400.988 272.45 397.606 272.805C393.692 271.555 390.502 270.739 386.641 272.841C383.153 274.74 380.202 280.106 375.81 278.786C373.595 278.12 371.132 275.754 369.606 274.087L372.222 265.928C377.407 265.331 380.609 266.262 385.329 268.327C392.428 263.201 398.092 261.551 406.594 260.129Z"/>
	<path fill="#A9AAA9" d="M281.553 388.306C283.74 389.018 285.966 389.406 287.366 391.355C288.07 397.119 283.82 402.54 282.377 407.933C281.328 411.854 282.117 416.51 280.037 420.102L278.975 419.892C273.97 412.377 275.17 400.588 273.386 391.983C276.006 390.498 278.762 389.423 281.553 388.306Z"/>
	<path fill="#A9AAA9" d="M307.031 422.178C310.296 423.008 313.581 423.754 316.884 424.418C317.802 430.59 319.009 439.374 316.039 445.164C315.014 447.163 314.547 447.642 312.486 448.434L310.713 447.571C305.469 440.721 306.849 430.278 307.031 422.178Z"/>
	<path fill="#FAA97A" d="M214.276 160.986C214.267 160.817 214.262 160.648 214.249 160.48C213.833 154.792 209.892 148.629 211.635 142.935L212.524 142.74C216.861 145.898 217.329 149.051 223.331 149.792C224.261 153.58 222.663 157.093 222.82 160.856L216.09 161.232L214.276 160.986Z"/>
	<path fill="#FAA97A" d="M477.17 404.98L483.321 408.49C479.708 415.463 476.219 422.547 472.304 429.355L472.041 412.69L477.17 404.98Z"/>
	<path fill="#FAA97A" d="M475.503 193.901C475.889 191.114 475.979 187.86 477.318 185.36C478.365 185.931 478.701 186.877 479.209 187.896C482.668 188.284 486.351 185.107 489.337 185.99C489.726 188.364 487.866 191.095 486.52 192.987C484.857 195.325 482.546 196.93 479.951 198.115L475.503 193.901Z"/>
	<path fill="#FAA97A" d="M329.549 436.945C334.903 437.425 340.236 438.111 345.537 439.002L352.276 442.234L348.814 449.004C342.274 445.137 335.855 441.184 329.549 436.945Z"/>
	<path fill="#FEFEFE" d="M209.057 656.03C299.275 650.461 376.942 719.058 382.576 809.286C388.211 899.515 319.682 977.244 229.472 982.945C139.169 988.653 61.3542 920.026 55.7138 829.704C50.0735 739.383 118.746 661.605 209.057 656.03Z"/>
	<path fill="#EF3E6A" d="M178.274 765.511C173.248 749.484 170.495 733.717 178.553 718.03C183.597 707.992 192.524 700.451 203.263 697.157C213.706 694.018 224.978 695.285 234.464 700.664C246.884 707.616 253.565 719.287 257.182 732.682C261.381 748.236 263.079 765.258 254.733 779.825C249.605 788.775 241.144 794.764 234.554 802.491C239.983 807.549 242.343 814.501 243.809 821.622L242.78 822.273L242.424 821.618C230.809 821.442 221.92 822.553 211.913 828.986C208.958 839.619 205.401 848.534 197.818 856.81C195.076 858.707 191.393 860.671 190.033 863.816C189.774 865.89 190.321 866.917 191.264 868.743L190.757 871.805C189.601 871.72 188.216 871.73 187.148 871.257C185.622 870.58 185.201 868.097 184.649 866.569C181.152 863.141 173.861 863.802 169.177 863.149C158.208 861.619 148.575 852.518 142.28 843.92C133.005 831.249 127.785 814.474 130.448 798.796C132.319 787.775 137.913 777.195 147.238 770.738C156.606 764.252 167.353 763.585 178.274 765.511Z"/>
	<path fill="#01A385" d="M190.757 871.805C189.601 871.72 188.216 871.73 187.148 871.257C185.622 870.58 185.201 868.097 184.649 866.569C181.152 863.141 173.861 863.802 169.177 863.149C158.208 861.619 148.575 852.518 142.28 843.92C133.005 831.249 127.785 814.474 130.448 798.796C132.319 787.775 137.913 777.195 147.238 770.738C156.606 764.252 167.353 763.585 178.274 765.511C186.812 780.036 195.078 790.924 210.445 798.941C212.375 809.005 213.324 818.762 211.913 828.986C208.958 839.619 205.401 848.534 197.818 856.81C195.076 858.707 191.393 860.671 190.033 863.816C189.774 865.89 190.321 866.917 191.264 868.743L190.757 871.805Z"/>
	<path fill="#FEFEFE" d="M157.108 773.006C158.291 773.015 159.442 773.224 160.608 773.403L161.12 774.279C158.622 778.678 150.249 781.547 146.45 785.909C138.618 794.903 140.389 807.183 141.072 818.161C138.72 817.43 137.581 816.238 136.455 814.04C133.67 808.599 135.03 802.381 136.712 796.825C140.129 785.542 146.902 778.455 157.108 773.006Z"/>
	<path fill="#FEFEFE" d="M210.445 798.941C216.131 799.877 227.975 799.53 231.708 803.501C231.94 805.053 232.228 806.415 232.761 807.893C234.123 808.585 235.18 808.695 236.665 808.799C235.682 807.346 234.761 805.874 233.87 804.363L234.554 802.491C239.983 807.549 242.343 814.501 243.809 821.622L242.78 822.273L242.424 821.618C230.809 821.442 221.92 822.553 211.913 828.986C213.324 818.762 212.375 809.005 210.445 798.941Z"/>
	<path fill="#90B8B2" d="M236.665 808.799C235.682 807.346 234.761 805.874 233.87 804.363L234.554 802.491C239.983 807.549 242.343 814.501 243.809 821.622L242.78 822.273L242.424 821.618C240.923 817.234 239.353 812.604 236.665 808.799Z"/>
	<path fill="#FEFEFE" d="M203.649 702.145C205.222 703.134 205.623 703.171 206.315 704.961C203.185 709.844 190.679 712.453 184.338 724.622C179.23 734.424 186.88 746.796 181.583 755.521C180.327 754.3 179.154 752.776 178.413 751.18C174.893 743.594 175.893 735.043 178.648 727.406C183.289 714.542 191.731 707.781 203.649 702.145Z"/>
	<path fill="#FBCA12" d="M211.913 828.986C221.92 822.553 230.809 821.442 242.424 821.618L242.78 822.273L243.809 821.622L244.748 822.467C257.709 828.454 267.092 836.608 272.211 850.302C277.276 863.854 277.077 880.78 270.898 893.966C270.737 894.311 270.567 894.652 270.388 894.988L270.226 895.359L269.395 896.61L269.131 898.264C264.564 905.072 256.233 909.203 252.535 916.171L249.265 916.111C246.92 914.884 244.522 914.975 241.951 914.821C231.803 914.213 224.454 910.823 216.928 903.836C203.336 891.217 198.384 874.845 197.818 856.81C205.401 848.534 208.958 839.619 211.913 828.986Z"/>
	<path fill="#FBCA12" d="M244.748 822.467C257.709 828.454 267.092 836.608 272.211 850.302C277.276 863.854 277.077 880.78 270.898 893.966C270.737 894.311 270.567 894.652 270.388 894.988C267.932 890.599 266.395 885.815 263.707 881.464C258.787 873.501 242.895 856.773 242.245 848.067C241.638 839.945 244.796 831.546 244.759 823.311L244.748 822.467Z"/>
	<path fill="#928313" d="M243.809 821.622L244.748 822.467L244.759 823.311C244.796 831.546 241.638 839.945 242.245 848.067C242.895 856.773 258.787 873.501 263.707 881.464C266.395 885.815 267.932 890.599 270.388 894.988L270.226 895.359L269.395 896.61C266.992 890.639 264.301 884.856 260.782 879.451C254.561 869.896 242.184 858.86 240.641 847.198C239.632 839.574 243.229 831.138 242.835 823.238L242.78 822.273L243.809 821.622Z"/>
	<path fill="#90B8B2" d="M191.264 868.743C191.293 868.94 191.317 869.137 191.351 869.333C192.237 874.452 195.635 878.597 196.163 883.781C197.115 893.118 193.58 903.036 196.427 912.04C198.869 919.763 205.017 925.567 209.775 931.893C216.277 940.536 224.626 954.975 223.472 966.18C222.243 965.675 222.037 964.836 221.549 963.653C219.017 957.515 219.559 950.471 216.401 944.435C210.306 932.785 198.029 924.054 194.444 911.186C193.919 909.3 193.685 907.284 193.627 905.329C193.426 898.551 196.025 891.349 195.028 884.682C194.346 880.118 191.364 876.101 190.757 871.805L191.264 868.743Z"/>
	<path fill="#90B8B2" d="M249.265 916.111L252.535 916.171C253.009 916.617 253.43 917.03 253.829 917.547C262.866 929.238 260.044 940.803 258.756 954.129C258.643 955.294 258.644 955.842 257.96 956.877C256.043 948.664 260.099 940.004 258.489 931.59C257.539 926.623 255.222 923.07 251.046 920.263C249.851 919.459 249.661 917.509 249.265 916.111Z"/>
	<path fill="#90B8B2" d="M269.395 896.61L270.226 895.359C272.692 907.767 273.734 916.92 268.458 928.814C269.086 918.794 272.238 908.07 269.131 898.264L269.395 896.61Z"/>
	<path fill="#FEFEFE" d="M1353.5 655.202C1441.91 651.345 1516.69 719.925 1520.49 808.347C1524.3 896.769 1455.69 971.522 1367.28 975.277C1278.94 979.029 1204.27 910.474 1200.47 822.123C1196.67 733.773 1265.17 659.054 1353.5 655.202Z"/>
	<path fill="#91D6B9" d="M1283.57 744.738C1284.46 744.726 1285.33 744.85 1286.22 744.989C1295.59 746.469 1360.42 772.972 1364.37 778.519C1364.47 779.527 1364.5 780.516 1364.41 781.525C1363.95 786.666 1360.79 792.588 1358.85 797.341C1353.09 811.435 1348.26 826.924 1335.83 836.772C1323.16 846.815 1309.47 845.713 1294.41 843.821C1294.63 844.464 1294.75 844.669 1294.82 845.305C1295.42 850.761 1281.25 885.093 1277.28 889.692C1277.33 889.841 1277.39 889.987 1277.44 890.14C1278.24 892.931 1277.12 894.456 1275.92 896.864C1278.36 899.536 1283.61 905.878 1283.32 909.661C1283.24 910.659 1282.79 910.789 1282.12 911.456C1272.62 913.187 1250.98 898.883 1240.65 895.954L1239.86 895.739C1247.34 893.582 1253.54 890.594 1261.45 889.813C1266.16 882.993 1282.61 843.977 1281.7 837.341C1281.15 835.062 1272.92 827.262 1270.92 824.056C1261.54 809.001 1268.29 782.859 1274.47 767.418C1277.33 760.283 1281.75 752.823 1283.44 745.365C1283.48 745.157 1283.52 744.947 1283.57 744.738Z"/>
	<path fill="#EF3E6A" d="M1275.5 803.195C1287.55 801.534 1294.5 809.446 1305.54 811.439C1317.49 813.596 1333.24 805.53 1343.94 812.371C1344.02 813.213 1344.08 813.974 1343.85 814.803C1342.43 820.081 1336.74 826.106 1332.08 828.72C1331.88 829.705 1331.67 830.233 1331.02 831.033C1327.35 835.564 1322.06 837.629 1316.38 838.231C1304.75 839.465 1292.96 836.706 1283.8 829.194C1277.96 824.399 1273 817.225 1272.52 809.458C1272.33 806.392 1273.57 805.285 1275.5 803.195Z"/>
	<path fill="#91D6B9" d="M1440 733.047C1441.74 732.825 1443.45 732.841 1445.2 732.851C1447.13 734.256 1448.2 736.881 1449.1 739.041C1456.23 756.124 1460.25 787.312 1452.74 804.582C1448.8 813.659 1442.08 819.3 1433 822.862C1438.24 828.355 1447.33 872.77 1447.28 881.809C1452.05 882.326 1456.32 883.235 1460.76 885.158C1463.12 886.181 1464.68 886.997 1465.62 889.457L1464.72 891.103C1456.37 897.452 1431.39 900.836 1420.59 902.278C1424.1 899.955 1431 891.482 1431.93 887.373C1432.37 886.264 1432.63 885.348 1432.63 884.144C1432.58 875.898 1423.82 831.847 1419.05 826.974C1416.87 827.284 1414.65 827.584 1412.44 827.582C1378 827.548 1371.16 795.947 1365.42 768.813C1364.27 763.384 1363.6 755.796 1359.52 751.776C1372.43 750.796 1386.4 745.488 1399.05 742.366C1412.65 739.012 1426.43 736.531 1440 733.047Z"/>
	<path fill="#EF3E6A" d="M1377.96 787.605C1378.24 787.519 1378.51 787.423 1378.8 787.346C1385.66 785.469 1394.72 792.414 1401 794.75C1412.95 799.196 1434.49 793.196 1444.63 800.057C1446.16 801.09 1446.07 801.395 1446.35 803.208C1444.96 806.401 1441.06 808.787 1438.08 810.396C1437.28 811.979 1436.01 813.062 1434.54 814.016C1426.46 819.265 1415.08 819.176 1406 817.075C1394.82 814.487 1385.23 809.413 1381.72 797.999C1380.72 794.771 1380.04 790.777 1378.19 787.942C1378.12 787.828 1378.04 787.717 1377.96 787.605Z"/>
	<path fill="#FBCA12" d="M1321.16 694.851C1323.07 695.19 1323.46 695.204 1324.84 696.682C1331.19 703.507 1347.9 740.273 1347.32 749.424C1344.57 746.082 1342.42 738.199 1340.54 734.053C1334.65 721.013 1328.68 707.02 1321.16 694.851Z"/>
	<path fill="#FBCA12" d="M1368.29 817.22C1369.74 817.802 1369.72 818.104 1370.34 819.55C1372.78 825.236 1379.16 853.16 1378.92 858.883C1378.89 859.425 1378.28 860.538 1378.07 861.091L1377.36 861.564C1368.93 849.695 1374.33 829.612 1368.29 817.22Z"/>
	<path fill="#FBCA12" d="M1366.54 698.749L1368.51 698.954C1369.57 700.225 1369.85 701.267 1370.09 702.884C1371.16 710.009 1372.32 728.866 1368.13 734.61L1368.14 735.71L1367.71 735.701C1367.02 723.618 1368.62 710.575 1366.54 698.749Z"/>
	<path fill="#FBCA12" d="M1357.68 828.132L1359.89 828.663C1360.26 829.875 1360.35 830.988 1360.17 832.242C1359.42 837.245 1356.62 845.671 1352.45 848.73L1351.69 848.923C1350.21 844.056 1357.23 833.922 1357.68 828.132Z"/>
	<path fill="#FBCA12" d="M1387.14 829.693C1388.2 829.596 1389.29 829.583 1390.31 829.974C1393.18 831.083 1396.73 834.174 1397.86 837.057C1398.52 838.757 1398.18 839.057 1397.46 840.613C1393.51 837.704 1389.86 833.762 1387.14 829.693Z"/>
	<path fill="#FBCA12" d="M1306.37 728.361C1309.91 728.341 1312.26 730.155 1314.91 732.319C1317.91 734.773 1320.68 737.705 1321.04 741.63C1315.45 738.252 1312.34 731.545 1306.37 728.361Z"/>
	<path fill="#FEEEAC" d="M1401.15 721.348L1402.81 721.534L1402.82 722.794C1401.35 724.886 1399.98 726.091 1397.92 727.538L1397.6 726.709L1401.15 721.348Z"/>
	<path fill="#FEFEFE" d="M1035.2 13.0661C1121.69 8.1583 1195.75 74.3856 1200.52 160.902C1205.29 247.419 1138.95 321.385 1052.44 326.012C966.127 330.629 892.379 264.467 887.623 178.148C882.867 91.8292 948.899 17.9627 1035.2 13.0661Z"/>
	<path fill="#EF3E6A" d="M930.245 140.167C924.354 137.236 906.948 134.054 903.655 128.785C910.468 128.876 934.164 138.86 943.241 141.13C987.245 152.133 1039.6 151.663 1083.8 141.791C1099.74 138.175 1115.24 132.883 1130.07 126.002C1137 122.841 1169.4 105.172 1172.95 104.675C1174.14 104.508 1173.86 104.548 1174.68 105.198C1167.33 112.636 1154.53 114.782 1146.18 121.115C1146.02 121.239 1145.86 121.369 1145.7 121.496C1142.8 121.191 1127.45 130.25 1122.65 131.389C1113.06 135.638 1098.54 136.869 1090.3 143.206C1082.9 142.492 1074.13 145.768 1066.78 146.849C1063.12 146.941 1059.75 147.504 1056.17 148.243L1054.63 148.256C1050.37 148.099 1045.85 148.634 1041.72 149.746L1039.92 149.752C1036.32 149.865 1032.82 150.108 1029.26 150.579L1027.34 150.378C1023.15 148.281 1014.94 149.358 1010.61 150.753C1010.29 150.858 1009.97 150.978 1009.65 151.101C1004.98 149.124 993.936 149.866 989.202 151.322C988.321 153.322 987.295 155.338 986.623 157.416L986.204 162.283C985.795 164.334 985.202 166.11 984.38 168.032C984.016 170.089 983.441 172.291 983.416 174.376L981.454 179.921C976.564 199.238 970.785 217.139 963.024 235.475C958.296 220.695 958.105 203.271 951.453 189.191C950.635 187.46 950.373 186.741 948.51 186.082C941.098 190.646 929.47 208.488 923.234 215.912C924.882 201.969 925.801 188.011 928.185 174.153L928.5 172.337L929.763 162.216L929.626 158.665C930.078 152.877 930.275 147.053 930.562 141.254L930.245 140.167Z"/>
	<path fill="#EF3E6A" d="M928.185 174.153C931.149 172.268 934.03 170.432 936.691 168.128L940.491 177.816C943.488 175.611 946.472 173.391 949.445 171.153C951.288 174.12 953.099 177.114 954.989 180.051L962.348 173.082L966.252 181.424L973.197 174.466C974.442 177.272 975.063 179.926 977.535 181.793C979.367 181.663 980.074 181.091 981.454 179.921C976.564 199.238 970.785 217.139 963.024 235.475C958.296 220.695 958.105 203.271 951.453 189.191C950.635 187.46 950.373 186.741 948.51 186.082C941.098 190.646 929.47 208.488 923.234 215.912C924.882 201.969 925.801 188.011 928.185 174.153Z"/>
	<path fill="#A15E7F" d="M959.581 183.112C961.311 185.546 962.337 188.659 963.494 191.415C964.52 190.187 965.558 188.801 966.73 187.713C968.514 186.057 968.997 185.957 971.299 186.006L972.481 187.275L972.261 189.375L971.543 189.73L969.917 187.014L963.273 193.804C962.176 191.678 960.593 187.213 958.449 186.484C957.26 187.42 956.211 188.509 954.637 188.618C955.172 186.53 958.007 184.558 959.581 183.112Z"/>
	<path fill="#A15E7F" d="M927.052 192.371C928.166 192.378 929.286 192.504 930.397 192.591C932.569 194.36 933.897 196.149 934.399 198.94L933.567 200.042C933.156 199.203 932.741 198.364 932.27 197.556C931.137 195.613 929.483 194.742 927.345 194.246C927.136 194.197 926.926 194.157 926.716 194.113L927.052 192.371Z"/>
	<path fill="#EF3E6A" d="M929.763 162.216C933.817 160.955 936.819 158.766 940.111 156.138C941.506 159.16 942.802 162.343 944.537 165.183L952.585 158.645L958.123 167.58L965.771 160.858L969.772 169.495L976.456 161.997C977.51 164.609 978.302 167.984 980.853 169.432C982.445 169.287 983.063 168.942 984.38 168.032C984.016 170.089 983.441 172.291 983.416 174.376L981.454 179.921C980.074 181.091 979.367 181.663 977.535 181.793C975.063 179.926 974.442 177.272 973.197 174.466L966.252 181.424L962.348 173.082L954.989 180.051C953.099 177.114 951.288 174.12 949.445 171.153C946.472 173.391 943.488 175.611 940.491 177.816L936.691 168.128C934.03 170.432 931.149 172.268 928.185 174.153L928.5 172.337L929.763 162.216Z"/>
	<path fill="#A15E7F" d="M937.62 165.814L941.496 175.277C944.314 173.052 947.131 170.558 950.302 168.862L954.968 177.575L963.114 170.497L966.887 178.764L974.083 171.286L977.683 181.077C979.435 178.776 981.106 176.141 983.416 174.376L981.454 179.921C980.074 181.091 979.367 181.663 977.535 181.793C975.063 179.926 974.442 177.272 973.197 174.466L966.252 181.424L962.348 173.082L954.989 180.051C953.099 177.114 951.288 174.12 949.445 171.153C946.472 173.391 943.488 175.611 940.491 177.816L936.691 168.128C934.03 170.432 931.149 172.268 928.185 174.153L928.5 172.337C931.457 170.106 934.402 167.646 937.62 165.814Z"/>
	<path fill="#91D6B9" d="M930.245 140.167C924.354 137.236 906.948 134.054 903.655 128.785C910.468 128.876 934.164 138.86 943.241 141.13C987.245 152.133 1039.6 151.663 1083.8 141.791C1099.74 138.175 1115.24 132.883 1130.07 126.002C1137 122.841 1169.4 105.172 1172.95 104.675C1174.14 104.508 1173.86 104.548 1174.68 105.198C1167.33 112.636 1154.53 114.782 1146.18 121.115C1146.02 121.239 1145.86 121.369 1145.7 121.496C1142.8 121.191 1127.45 130.25 1122.65 131.389C1113.06 135.638 1098.54 136.869 1090.3 143.206C1082.9 142.492 1074.13 145.768 1066.78 146.849C1063.12 146.941 1059.75 147.504 1056.17 148.243L1054.63 148.256C1050.37 148.099 1045.85 148.634 1041.72 149.746L1039.92 149.752C1036.32 149.865 1032.82 150.108 1029.26 150.579L1027.34 150.378C1023.15 148.281 1014.94 149.358 1010.61 150.753C1010.29 150.858 1009.97 150.978 1009.65 151.101C1004.98 149.124 993.936 149.866 989.202 151.322C987.42 150.202 985.588 149.506 983.534 149.085C974.607 147.253 965.023 147.076 955.939 145.575C947.577 144.192 937.843 141.199 930.245 140.167Z"/>
	<path fill="#796E7F" d="M930.245 140.167C937.843 141.199 947.577 144.192 955.939 145.575C965.023 147.076 974.607 147.253 983.534 149.085C985.588 149.506 987.42 150.202 989.202 151.322C988.321 153.322 987.295 155.338 986.623 157.416L984.266 157.097C981.809 155.281 981.006 152.349 979.885 149.606L972.929 156.721L969.185 148.127L961.259 154.838L956.136 146.015L947.459 152.734C945.957 149.499 944.708 146.1 943.358 142.796C940.457 145.304 937.421 147.683 934.454 150.116C933.303 147.054 932.072 144.157 930.562 141.254L930.245 140.167Z"/>
	<path fill="#A15E7F" d="M929.626 158.665C934.695 159.027 937.14 156.295 940.729 153.202L944.857 162.62C947.615 160.524 950.341 158.314 953.196 156.355C955.077 159.263 956.926 162.101 958.38 165.253C961.021 162.795 963.554 160.312 966.651 158.431L970.061 166.207C972.457 163.887 974.816 161.48 977.348 159.309C978.538 162.356 979.778 165.393 980.897 168.466C982.605 166.429 984.293 164.114 986.204 162.283C985.795 164.334 985.202 166.11 984.38 168.032C983.063 168.942 982.445 169.287 980.853 169.432C978.302 167.984 977.51 164.609 976.456 161.997L969.772 169.495L965.771 160.858L958.123 167.58L952.585 158.645L944.537 165.183C942.802 162.343 941.506 159.16 940.111 156.138C936.819 158.766 933.817 160.955 929.763 162.216L929.626 158.665Z"/>
	<path fill="#6A5193" d="M1122.65 131.389C1127.45 130.25 1142.8 121.191 1145.7 121.496C1146.55 122.567 1147.23 123.711 1147.6 125.033C1149.34 131.254 1150.23 137.767 1151.9 144.03C1153.45 149.871 1160.89 168.672 1160.29 172.918C1160.18 173.667 1159.99 174.228 1159.74 174.925C1159.69 175.05 1159.66 175.179 1159.62 175.306C1161.27 176.571 1163 177.869 1163.43 180.031C1163.77 181.724 1163.31 183.279 1162.67 184.825C1161.2 186.733 1160.04 186.634 1157.82 187.162C1156.25 183.936 1152.22 181.448 1149.3 179.573L1147.9 178.39C1145.84 174.391 1138.78 170.54 1134.99 168.266C1135.06 168.498 1135.13 168.729 1135.19 168.965C1136.04 172.699 1133.85 182.609 1133.58 187.006C1133.01 196.337 1134.34 206.172 1132.93 215.383C1132.53 217.997 1131.44 220.071 1130.09 222.31C1130.54 220.237 1130.13 218.71 1129.21 216.834C1125.49 209.2 1119.98 202.218 1115.9 194.702C1110.08 183.986 1105.46 172.698 1099.63 161.993L1099.47 161.468C1098.42 158.501 1097.46 156.088 1095.56 153.56C1094.74 150.456 1093.87 147.301 1091.51 145.014L1090.3 143.206C1098.54 136.869 1113.06 135.638 1122.65 131.389Z"/>
	<path fill="#3E6F92" d="M1145 133.613L1147.29 133.116L1147.5 134.251C1144.55 136.033 1141.02 136.667 1137.82 137.956C1126.73 142.424 1115.62 146.673 1104.47 150.977C1102.85 151.602 1101.54 152.897 1099.95 153.428C1098.74 153.832 1096.83 153.622 1095.56 153.56C1096.72 152.933 1097.79 152.354 1099.04 151.939C1101.55 151.108 1103.04 148.171 1105.25 147.174C1107.45 146.18 1109.78 147.884 1111.94 147.315C1114.14 146.733 1114.29 144.507 1115.78 143.207C1117.44 141.766 1120.91 143.92 1123.02 142.928C1124.79 142.097 1125.11 139.319 1126.74 138.317C1128.37 137.317 1131.02 138.789 1132.69 138.768C1137.17 138.713 1133.57 132.57 1143.56 134.618L1145 133.613Z"/>
	<path fill="#3E6F92" d="M1090.3 143.206C1098.54 136.869 1113.06 135.638 1122.65 131.389L1123.97 133.493C1123.05 135.128 1123.14 135.017 1121.42 135.506C1113.37 137.787 1098.62 145.251 1091.51 145.014L1090.3 143.206Z"/>
	<path fill="#3E6F92" d="M1099.47 161.468C1099.68 161.414 1099.89 161.367 1100.1 161.307C1103.92 160.206 1104.96 157.286 1108.07 155.62C1110.16 154.498 1112.29 156.143 1114.4 155.893C1117.88 155.48 1116.46 151.525 1121.89 151.256C1129.91 150.859 1134.37 144.576 1140.59 142.573C1142.4 141.991 1148.41 142.983 1149.91 144.07C1147.19 144.99 1144.38 144.695 1141.64 145.567C1136.8 147.111 1106.06 159.925 1103.06 161.927L1099.63 161.993L1099.47 161.468Z"/>
	<path fill="#6A5193" d="M1159.62 175.306C1161.27 176.571 1163 177.869 1163.43 180.031C1163.77 181.724 1163.31 183.279 1162.67 184.825C1161.2 186.733 1160.04 186.634 1157.82 187.162C1156.25 183.936 1152.22 181.448 1149.3 179.573L1147.9 178.39C1151.12 175.047 1155.68 178.399 1159.62 175.306Z"/>
	<path fill="#3E6F92" d="M1159.62 175.306L1159.72 177.524C1156.74 179.912 1153 179.493 1149.3 179.573L1147.9 178.39C1151.12 175.047 1155.68 178.399 1159.62 175.306Z"/>
	<path fill="#3E6F92" d="M1144.88 159.389C1145.56 159.351 1146.19 159.337 1146.86 159.494C1149.89 160.204 1151.52 160.484 1154.49 159.269C1154.73 159.169 1154.97 159.062 1155.22 158.958L1155.61 159.699C1153.53 162.891 1149.37 161.204 1146.15 162.474C1141.4 164.345 1136.81 167.144 1132.13 169.253C1127.9 171.158 1123.41 172.394 1119.21 174.367C1118.12 174.876 1115.66 174.381 1114.39 174.281C1113.93 174.705 1113.46 175.109 1113 175.531C1110.47 177.858 1108.14 178.993 1105.02 180.343C1107.8 178.146 1111.17 173.062 1114.44 172.23C1123.11 173.921 1119.37 170.225 1124.88 168.195C1126.19 168.503 1127.87 169.057 1129.21 169.05C1132.07 169.035 1132.83 165.601 1134.93 164.111C1136.14 163.25 1138.39 163.614 1139.8 163.768L1140.59 163.86C1142.89 162.677 1143.47 161.49 1144.88 159.389Z"/>
	<path fill="#3E6F92" d="M1141.23 151.593C1144.43 150.915 1148 151.747 1151.36 151.552L1151.29 152.407L1148.96 153.536C1146.97 153.337 1145.31 153.229 1143.34 153.592C1139.87 156.507 1118.17 166.517 1114.27 166.343C1113.76 166.32 1113.26 166.314 1112.75 166.33C1111.95 166.362 1111.15 166.386 1110.35 166.402C1110.26 166.653 1110.21 166.922 1110.08 167.155C1109.23 168.667 1108.06 169.426 1106.49 169.907C1106.69 167.184 1108.5 165.66 1110.13 163.531C1120.36 164.871 1127.7 157.061 1137.15 155.294C1137.42 155.243 1138.57 155.053 1138.88 154.938C1140.57 154.313 1140.76 153.098 1141.23 151.593Z"/>
	<path fill="#3E6F92" d="M1128.03 185.88L1130.59 185.96C1130.66 186.557 1130.87 186.862 1130.47 187.356C1128.64 189.63 1124.35 191.549 1121.46 191.835C1119.94 191.986 1118.77 192.235 1117.32 192.72L1116.78 192.905L1116.2 191.96C1118.57 189.598 1120.12 189.98 1123.35 189.36C1125.8 188.889 1126.68 187.909 1128.03 185.88Z"/>
	<path fill="#3E6F92" d="M1156.49 167.188L1157.5 168.08C1155.66 170.499 1148.28 170.794 1144.55 173.584L1144.47 172.525C1148.5 165.802 1152.37 170.939 1156.49 167.188Z"/>
	<path fill="#3E6F92" d="M1126.42 177.315C1128.43 177.22 1129.85 177.478 1131.74 178.152C1130.42 179.518 1128.41 179.432 1126.56 179.726C1125.85 180.475 1125.62 180.286 1124.63 180.384L1124.18 181.145C1124.48 179.731 1125.59 178.495 1126.42 177.315Z"/>
	<path fill="#FBCA12" d="M1056.17 148.243C1059.75 147.504 1063.12 146.941 1066.78 146.849L1067.34 148.674L1067.73 149.715C1069.17 151.645 1069.96 153.515 1069.64 155.972C1069.54 156.712 1069.37 157.441 1069.19 158.165L1069.36 159.647C1070.53 161.313 1071.87 163.055 1071.48 165.217C1071.31 166.196 1070.89 167.243 1070.44 168.129L1070.82 169.169C1063.63 178.388 1054.17 186.401 1044.79 193.304L1043.5 193.216L1039.54 197.798L1038.87 199.583C1040.04 205.244 1028.56 227.109 1025.19 232.358C1024.12 234.01 1022.81 235.198 1021.23 236.345C1024.13 230.261 1020.84 215.98 1018.7 209.62C1018.41 208.76 1017.97 208.013 1017.45 207.276L1016.9 205.075C1017.25 204.219 1017.49 203.585 1017.58 202.66C1017.98 198.656 1016.91 190.15 1014.36 187.083L1013.84 184.843C1013.94 184.567 1014.05 184.293 1014.15 184.014C1015.03 181.409 1014.69 179.363 1013.42 176.987L1013.37 175.441C1013.65 172.397 1013.12 169.517 1011.9 166.74L1011.86 165.309C1011.92 164.911 1011.97 164.511 1012 164.11C1012.34 159.96 1012.5 154.424 1009.65 151.101C1009.97 150.978 1010.29 150.858 1010.61 150.753C1014.94 149.358 1023.15 148.281 1027.34 150.378L1029.26 150.579C1032.82 150.108 1036.32 149.865 1039.92 149.752L1041.72 149.746C1045.85 148.634 1050.37 148.099 1054.63 148.256L1056.17 148.243Z"/>
	<path fill="#FBCA12" d="M1016.9 205.075C1018.41 204.808 1019.49 204.293 1020.68 203.344C1029 196.694 1036.38 188.42 1044.22 181.173C1052.49 173.518 1061.54 166.453 1069.19 158.165L1069.36 159.647C1070.53 161.313 1071.87 163.055 1071.48 165.217C1071.31 166.196 1070.89 167.243 1070.44 168.129L1070.82 169.169C1063.63 178.388 1054.17 186.401 1044.79 193.304L1043.5 193.216L1039.54 197.798L1038.87 199.583C1040.04 205.244 1028.56 227.109 1025.19 232.358C1024.12 234.01 1022.81 235.198 1021.23 236.345C1024.13 230.261 1020.84 215.98 1018.7 209.62C1018.41 208.76 1017.97 208.013 1017.45 207.276L1016.9 205.075Z"/>
	<path fill="#D6AA2D" d="M1016.9 205.075C1018.41 204.808 1019.49 204.293 1020.68 203.344C1029 196.694 1036.38 188.42 1044.22 181.173C1052.49 173.518 1061.54 166.453 1069.19 158.165L1069.36 159.647C1063.45 167.508 1025.48 203.501 1017.45 207.276L1016.9 205.075Z"/>
	<path fill="#BB9541" d="M1070.44 168.129L1070.82 169.169C1063.63 178.388 1054.17 186.401 1044.79 193.304L1043.5 193.216C1051.9 184.41 1061.72 176.69 1070.44 168.129Z"/>
	<path fill="#D6AA2D" d="M1038.87 199.583C1038.15 200.548 1037.4 201.486 1036.61 202.394C1033.82 205.613 1024.92 215.74 1021.03 216.037C1021.41 214.094 1036.91 199.886 1039.54 197.798L1038.87 199.583Z"/>
	<path fill="#FBCA12" d="M1009.65 151.101C1009.97 150.978 1010.29 150.858 1010.61 150.753C1014.94 149.358 1023.15 148.281 1027.34 150.378L1029.26 150.579C1032.82 150.108 1036.32 149.865 1039.92 149.752C1039.77 150.314 1039.65 151.406 1039.38 151.873C1037.63 154.824 1017.98 172.948 1014.66 174.917C1014.08 175.258 1013.93 175.273 1013.37 175.441C1013.65 172.397 1013.12 169.517 1011.9 166.74L1011.86 165.309C1011.92 164.911 1011.97 164.511 1012 164.11C1012.34 159.96 1012.5 154.424 1009.65 151.101Z"/>
	<path fill="#FBCA12" d="M1009.65 151.101C1009.97 150.978 1010.29 150.858 1010.61 150.753C1014.94 149.358 1023.15 148.281 1027.34 150.378C1026.49 155.351 1018.92 160.853 1014.97 163.645C1013.93 164.377 1013.07 164.927 1011.86 165.309C1011.92 164.911 1011.97 164.511 1012 164.11C1012.34 159.96 1012.5 154.424 1009.65 151.101Z"/>
	<path fill="#BB9541" d="M1027.34 150.378L1029.26 150.579C1028.35 155.684 1019.68 162.105 1015.59 164.922C1014.45 165.713 1013.21 166.277 1011.9 166.74L1011.86 165.309C1013.07 164.927 1013.93 164.377 1014.97 163.645C1018.92 160.853 1026.49 155.351 1027.34 150.378Z"/>
	<path fill="#FBCA12" d="M1041.72 149.746C1045.85 148.634 1050.37 148.099 1054.63 148.256C1051.66 153.533 1020.33 182.997 1014.84 184.617C1014.42 184.74 1014.24 184.767 1013.84 184.843C1013.94 184.567 1014.05 184.293 1014.15 184.014C1015.03 181.409 1014.69 179.363 1013.42 176.987L1013.37 175.441C1013.93 175.273 1014.08 175.258 1014.66 174.917C1017.98 172.948 1037.63 154.824 1039.38 151.873C1039.65 151.406 1039.77 150.314 1039.92 149.752L1041.72 149.746Z"/>
	<path fill="#D6AA2D" d="M1039.92 149.752L1041.72 149.746C1041.56 153.906 1036.31 157.8 1033.42 160.468C1028.28 165.225 1020.11 174.962 1013.42 176.987L1013.37 175.441C1013.93 175.273 1014.08 175.258 1014.66 174.917C1017.98 172.948 1037.63 154.824 1039.38 151.873C1039.65 151.406 1039.77 150.314 1039.92 149.752Z"/>
	<path fill="#D6AA2D" d="M1054.63 148.256L1056.17 148.243C1053.83 154.133 1022.64 183.528 1016.27 186.392C1015.64 186.677 1015.02 186.897 1014.36 187.083L1013.84 184.843C1014.24 184.767 1014.42 184.74 1014.84 184.617C1020.33 182.997 1051.66 153.533 1054.63 148.256Z"/>
	<path fill="#BB9541" d="M1067.34 148.674L1067.73 149.715C1062.29 156.407 1037.18 181.427 1030.24 184.791L1029.7 183.493C1034.88 180.339 1061.76 154.3 1067.34 148.674Z"/>
	<path fill="#D6AA2D" d="M1029.7 183.493L1030.24 184.791C1029.08 188.043 1023.61 191.877 1020.98 194.089L1019.9 193.952L1018.91 195.605L1018.86 195.42C1021.47 190.921 1026.09 187.225 1029.7 183.493Z"/>
	<path fill="#FBCA12" d="M1070.82 169.169C1073.88 173.663 1074.46 181.538 1073.38 186.76C1073.24 187.41 1073.07 188.025 1072.83 188.643L1073.02 189.463C1075.27 192.592 1077.86 223.065 1077.04 228.119C1076.89 229.021 1076.57 229.823 1076.22 230.66C1075.95 231.33 1075.69 231.984 1075.38 232.646C1075.67 227.13 1054.21 202.562 1049.56 197.268C1048.2 195.717 1046.6 194.304 1044.79 193.304C1054.17 186.401 1063.63 178.388 1070.82 169.169Z"/>
	<path fill="#BB9541" d="M1072.83 188.643L1073.02 189.463C1069.24 194.685 1062.87 200.951 1057.27 204.151C1061.59 198.461 1067.66 193.594 1072.83 188.643Z"/>
	<path fill="#BB9541" d="M1066.93 181.976C1067.68 182.117 1067.95 182.345 1068.56 182.776C1066.19 187.726 1058.44 192.936 1053.95 196.079L1053.31 195.817C1054.63 191.858 1063.61 185.108 1066.93 181.976Z"/>
	<path fill="#765EA1" d="M1162.67 184.825C1164.87 186.546 1165.39 186.936 1165.82 189.828C1166.04 191.268 1166.16 192.482 1165.44 193.738L1164.7 192.21L1164.55 192.871C1162.41 190.678 1160.49 188.718 1157.82 187.162C1160.04 186.634 1161.2 186.733 1162.67 184.825Z"/>
	<path fill="#FEFEFE" d="M1276.32 327.035C1356.12 318.351 1427.83 376.086 1436.38 455.916C1444.94 535.745 1387.1 607.369 1307.27 615.801C1227.62 624.214 1156.2 566.523 1147.67 486.871C1139.13 407.22 1196.7 335.699 1276.32 327.035Z"/>
	<path fill="#C094FD" d="M1273.07 419.719C1289.66 420.017 1308.41 424.989 1324.47 429.25C1324.52 429.862 1324.55 430.342 1324.42 430.947C1323.52 435.078 1284.67 486.893 1280.29 489.316C1278.19 490.476 1275.82 490.744 1273.52 490.036C1268.99 488.637 1265.02 485.438 1262.83 481.219C1260.98 477.634 1260.32 473.205 1261.72 469.352C1262.51 467.173 1264.08 465.214 1266.3 464.388C1268.79 463.46 1271.47 464.221 1273.7 465.45C1277.27 467.41 1281.48 471.159 1282.55 475.167C1282.59 475.34 1282.63 475.515 1282.67 475.689C1284.31 474.335 1285.71 472.721 1287.03 471.062C1289.48 467.997 1293.49 462.528 1293.05 458.446C1295.05 457.201 1296.34 455.511 1297.76 453.655C1300.4 450.203 1305.13 443.667 1304.56 439.189C1300.67 435.077 1283.19 431.37 1277.56 429.885C1277.58 430.022 1277.61 430.159 1277.61 430.298C1277.67 435.312 1256.39 465.167 1251.65 469.342C1248.98 471.697 1245.45 472.836 1241.91 472.485C1237.15 472.021 1232.68 468.999 1229.87 465.218C1228.01 462.715 1226.54 459.311 1227.18 456.157C1227.59 454.14 1228.83 452.543 1230.62 451.555C1233.95 449.726 1239.54 449.751 1243.13 450.899C1245.67 451.709 1249.63 454.25 1250.77 456.694C1250.89 456.953 1250.99 457.222 1251.1 457.485C1258.92 450.356 1269.07 429.691 1273.07 419.719Z"/>
	<path fill="#06594D" d="M1357.57 471.938C1358.89 471.713 1360.07 471.578 1361.36 472.062C1367.52 474.385 1395.13 490.916 1397.58 495.959C1397.7 502.425 1377.18 538.36 1372.01 543.758C1369.47 546.406 1365.5 547.932 1361.86 547.844C1357.67 547.744 1353.31 545.601 1350.44 542.591C1347.65 539.655 1346.33 536.366 1346.6 532.29C1346.77 529.636 1347.75 528.697 1349.59 527.058C1357.06 524.622 1364.91 528.598 1371.62 531.63C1372.24 531.313 1372.63 531.117 1373.1 530.599C1376.18 527.21 1383.48 512.319 1383.1 507.921C1383.08 507.618 1383.02 507.318 1382.99 507.017C1384.54 505.925 1386.06 504.528 1386.67 502.657C1387.11 501.305 1386.83 500.07 1386.15 498.878C1382.72 492.858 1368.31 487.27 1361.91 485.58C1361.98 485.826 1362.07 486.069 1362.12 486.32C1363.09 490.71 1345.51 523.791 1341.98 528.433C1340.27 530.681 1338.24 532.264 1335.36 532.508C1329.93 532.968 1324.06 530.631 1320.03 527.065C1317.88 525.161 1316.01 522.68 1315.99 519.683C1315.97 517.552 1317.03 515.563 1318.54 514.106C1321.09 511.638 1324.85 510.343 1328.38 510.415C1332.95 510.51 1336.26 512.778 1339.22 516.079L1339.79 516.724C1340.21 516.217 1340.6 515.689 1340.97 515.144C1344.96 509.294 1358.81 478.404 1357.57 471.938Z"/>
	<path fill="#06594D" d="M1219.92 398.671C1222.7 398.708 1223.54 399.586 1225.53 401.508C1229.35 405.188 1242.55 417.615 1242.63 422.626C1242.54 423.269 1242.42 423.9 1242.23 424.522C1240.94 428.605 1237.08 433.867 1233.3 435.937C1233.27 435.694 1233.25 435.45 1233.21 435.208C1232.29 429.077 1226.48 417.38 1221.48 413.746C1221.58 414.337 1221.65 414.92 1221.65 415.521C1221.65 421.451 1205.19 458.844 1201.08 462.601C1201.13 463.15 1201.2 463.412 1201.06 463.998C1200.75 465.359 1199.64 466.368 1198.49 467.017C1195.49 468.704 1190.46 468.113 1187.22 467.276C1181.46 465.787 1173.82 460.177 1171.01 454.885C1170.04 453.067 1169.56 450.938 1170.26 448.941C1171.06 446.691 1173.19 445.019 1175.26 444.003C1179.96 441.696 1185.99 441.637 1190.87 443.397C1193.89 444.487 1197.35 446.478 1198.75 449.467C1204.1 443.299 1219.17 407.121 1219.92 398.671Z"/>
	<path fill="#01A385" d="M1320.23 475.835C1320.94 475.616 1321.67 475.404 1322.41 475.353C1324.07 475.239 1325.55 476.546 1326.67 477.607C1328.52 479.358 1329.66 482.039 1329.69 484.543C1326.81 489.63 1287.37 519.375 1281.85 521.005C1275.45 522.898 1269.91 518.578 1264.64 515.588C1264.13 513.278 1262.83 510.982 1262.13 508.686C1261.43 506.399 1261.48 503.46 1262.73 501.366C1263.63 499.865 1265.1 498.952 1266.77 498.533C1271.28 497.406 1276.86 499.389 1280.6 501.871C1283.58 503.842 1285.83 506.25 1286.58 509.844C1286.9 509.695 1287.34 509.505 1287.65 509.314C1293.61 505.707 1318.74 482.067 1320.23 475.835Z"/>
	<path fill="#C094FD" d="M1362.32 566.247C1363.48 566.135 1364.75 566.01 1365.91 566.136C1368.19 566.385 1370.48 568.033 1371.75 569.895C1372.96 571.665 1373.27 572.901 1372.96 574.993L1371.89 575.67L1369.58 574.258L1370.27 572.349C1368.96 571.232 1366.57 573.569 1364.72 573.006L1365.64 570.134C1365.02 567.656 1364.36 567.65 1362.32 566.247Z"/>
	<path fill="#C094FD" d="M1380.44 454.01C1380.7 453.996 1380.96 453.971 1381.22 453.967C1383.58 453.929 1385.75 455.535 1387.38 457.082C1389.13 458.746 1390.46 460.823 1390.5 463.275L1389.25 464.258L1386.62 463.369L1387.38 461.124C1386.11 459.669 1383.29 461.439 1381.18 461.158L1383.14 457.491C1381.91 456.369 1381.18 455.504 1380.44 454.01Z"/>
	<path fill="#C094FD" d="M1233.37 514.804C1234.67 514.475 1235.45 514.315 1236.8 514.527L1237.14 515.492C1234.93 519.093 1230.77 521.783 1226.94 523.394C1226.32 523.939 1226.22 523.856 1225.45 523.978C1226.96 520.256 1231.54 518.526 1233.37 514.804Z"/>
	<path fill="#C094FD" d="M1279.02 538.185L1281.08 538.392C1281.6 538.978 1281.92 539.497 1282.08 540.28C1282.75 543.551 1281.44 547.947 1279.6 550.669L1279.22 551.211C1277.96 547.415 1279.5 542.299 1279.02 538.185Z"/>
	<path fill="#C094FD" d="M1180 483.613C1180.39 483.621 1181.08 483.613 1181.44 483.723C1183.29 484.29 1182.02 486.449 1183.2 487.982L1187.2 488.217L1185.97 489.866C1185.24 490.719 1184.78 490.967 1183.72 491.249C1182.5 491.575 1182.54 491.421 1181.44 490.769C1179.86 488.225 1179.89 486.471 1180 483.613Z"/>
	<path fill="#C094FD" d="M1389.59 533.507C1390.17 533.462 1390.76 533.422 1391.35 533.441C1393.65 533.515 1396.84 535.149 1398.33 536.841C1399.65 538.334 1399.58 538.665 1399.52 540.539C1395.84 539.695 1392.4 535.947 1389.59 533.507Z"/>
	<path fill="#C094FD" d="M1387.52 449.314L1390.09 449.519C1390.23 450.133 1390.36 450.861 1390.71 451.402C1391.86 453.144 1393.02 453.515 1394.88 454.088L1393.68 455.52C1393.29 456.098 1392.41 456.57 1391.86 456.966L1390.18 456.341C1388.55 454.187 1388.12 451.88 1387.52 449.314Z"/>
	<path fill="#C094FD" d="M1171.48 489.08C1172.72 488.778 1173.89 488.848 1175.15 488.889C1177.05 490.026 1177.39 489.984 1178.18 492.142C1177.28 494.307 1176.74 494.452 1174.72 495.734L1174.38 495.913L1173.5 495.507C1173.88 494.569 1174.27 493.786 1174.21 492.752C1174.09 490.652 1173.04 490.357 1171.48 489.08Z"/>
	<path fill="#C094FD" d="M1286.22 392.426C1286.86 392.38 1287.3 392.321 1287.95 392.413C1289.49 392.63 1290.81 394.093 1291.36 395.473C1292.19 397.571 1291.81 399.782 1291.01 401.801C1288.67 400.168 1288.49 395.02 1286.22 392.426Z"/>
	<path fill="#C094FD" d="M1175.31 411.143C1178.25 411.391 1181.67 412.004 1183.93 414.04C1184.97 414.964 1184.79 415.233 1184.89 416.611C1184.73 416.656 1184.57 416.739 1184.4 416.746C1181.24 416.874 1177.39 413.254 1175.31 411.143Z"/>
	<path fill="#C094FD" d="M1413.84 486.749C1415.32 486.562 1416.73 486.455 1418.22 486.477C1419.52 486.497 1419.48 486.38 1420.37 487.295C1418.11 488.993 1415.73 489.158 1413.03 489.529C1411.71 490.257 1410.86 490.138 1409.43 489.997C1410.3 488.384 1412.26 487.662 1413.84 486.749Z"/>
	<path fill="#C094FD" d="M1252.11 390.098L1255.42 390.603C1257.04 391.837 1257.34 391.866 1257.91 393.908C1256.81 396.024 1256.23 396.206 1254.13 397.409L1253.2 396.402L1254.99 394.027C1254.33 392.445 1253.25 391.357 1252.11 390.098Z"/>
	<path fill="#C094FD" d="M1205.85 372.166C1206.43 372.074 1206.89 372.04 1207.47 372.162C1209.18 372.523 1209.23 373.123 1210.16 374.485C1210.46 376.947 1210.22 378.45 1209.33 380.759C1207.58 379.293 1207.02 374.413 1205.85 372.166Z"/>
	<path fill="#FEFEFE" d="M1414.8 49.7068C1483.35 44.6539 1543.04 96.075 1548.2 164.625C1553.36 233.175 1502.04 292.956 1433.51 298.226C1364.82 303.508 1304.89 252.041 1299.72 183.337C1294.54 114.634 1346.1 54.7711 1414.8 49.7068Z"/>
	<path fill="#FBCA12" d="M1457.85 119.323C1458.01 119.24 1458.17 119.16 1458.34 119.075C1466.66 114.667 1471.17 106.886 1481.96 109.954C1487.16 111.47 1491.53 115.006 1494.1 119.771C1495.82 122.963 1496.53 126.338 1496.57 129.94C1496.61 134.301 1493.45 136.972 1492.66 140.784C1491.48 146.484 1502.83 154.378 1494.28 162.339C1493.68 162.895 1493.03 163.288 1492.32 163.676C1493.83 165.023 1495.58 167.512 1497.12 168.587C1500.79 171.166 1509.58 170.594 1509.99 176.929C1510.18 179.85 1507.08 183.878 1505.18 185.957C1507.13 187.802 1509.8 191.021 1509.91 193.865C1509.97 195.644 1509.2 197.213 1507.92 198.368C1507.12 199.081 1506.16 199.427 1505.17 199.798C1507.22 203.321 1507.63 208.45 1507.85 212.437C1508.06 216.086 1508.39 220.39 1505.79 223.27C1499.66 224.112 1491.31 221.975 1484.97 221.365C1455.75 218.521 1426.56 215.336 1397.41 211.811C1379.66 209.804 1361.69 208.82 1344.01 206.581C1340.71 206.163 1337.29 205.565 1334.16 204.423C1331.18 203.334 1330.52 200.773 1329.3 198.056C1329.4 197.961 1329.5 197.87 1329.59 197.772C1332.78 194.417 1336.55 183.302 1336.34 178.518C1338.81 172.119 1335.89 164.84 1337.53 158.294C1339.09 152.086 1343.37 147.327 1345.42 141.42C1345.47 141.291 1345.51 141.162 1345.55 141.032C1347.93 135.992 1346.19 129.907 1348.77 124.61C1351.18 119.671 1356.06 116.283 1361.14 114.526C1366.79 112.573 1373.34 112.601 1378.71 115.38C1381.3 116.72 1384.3 118.972 1385.25 121.811C1391.04 121.205 1399.36 119.627 1404.77 122.145C1406.64 123.017 1407.31 123.634 1408.09 125.481C1415.62 124.472 1422.67 118.972 1430.41 117.513C1434.74 116.698 1440.24 116.888 1443.95 119.463C1448.61 119.245 1453.18 119.083 1457.85 119.323Z"/>
	<path fill="#01A385" d="M1345.55 141.032C1347.93 135.992 1346.19 129.907 1348.77 124.61C1351.18 119.671 1356.06 116.283 1361.14 114.526C1366.79 112.573 1373.34 112.601 1378.71 115.38C1381.3 116.72 1384.3 118.972 1385.25 121.811C1391.04 121.205 1399.36 119.627 1404.77 122.145C1406.64 123.017 1407.31 123.634 1408.09 125.481C1408.25 128.877 1405.22 132.255 1403.05 134.629C1401.7 136.117 1400.62 137.156 1398.74 137.976C1398.95 140.539 1398.74 140.523 1397.13 142.573C1396.15 143.61 1395.61 143.85 1394.22 144.166C1392.11 148.168 1385.38 150.366 1381.63 152.683C1374.24 157.237 1369.27 169.691 1361.19 172.238C1361.52 174.393 1361.62 175.567 1360.28 177.508C1359.39 178.797 1357.78 180.078 1356.37 180.747C1356.95 183.738 1354.64 191.332 1352.88 193.937C1352.4 194.64 1351.76 195.099 1351.1 195.602C1344.48 191.66 1342.78 181.346 1336.34 178.518C1338.81 172.119 1335.89 164.84 1337.53 158.294C1339.09 152.086 1343.37 147.327 1345.42 141.42C1345.47 141.291 1345.51 141.162 1345.55 141.032Z"/>
	<path fill="#EF3E6A" d="M1336.34 178.518C1338.81 172.119 1335.89 164.84 1337.53 158.294C1339.09 152.086 1343.37 147.327 1345.42 141.42C1345.47 141.291 1345.51 141.162 1345.55 141.032C1348.19 143.124 1350.74 146.654 1351.14 150.091C1351.54 153.535 1350.77 156.396 1349.44 159.513C1348.46 161.79 1347.94 164.932 1346.35 166.771C1349.04 168.782 1352.08 173.31 1352.19 176.796C1352.21 177.578 1352.13 177.679 1351.92 178.324C1353.46 178.948 1355.27 179.461 1356.37 180.747C1356.95 183.738 1354.64 191.332 1352.88 193.937C1352.4 194.64 1351.76 195.099 1351.1 195.602C1344.48 191.66 1342.78 181.346 1336.34 178.518Z"/>
	<path fill="#F79D12" d="M1351.92 178.324L1351.04 179.817C1349.96 180.049 1349.67 180.408 1348.7 179.744C1346.7 178.386 1345.45 174.776 1345.12 172.439C1344.77 170.005 1344.97 168.743 1346.35 166.771C1349.04 168.782 1352.08 173.31 1352.19 176.796C1352.21 177.578 1352.13 177.679 1351.92 178.324Z"/>
	<path fill="#EF3E6A" d="M1379.36 143.376C1382.81 141.661 1386.1 139.602 1390.09 140.255C1391.99 141.252 1393.26 141.595 1394.09 143.689C1394.15 143.842 1394.18 144.007 1394.22 144.166C1392.11 148.168 1385.38 150.366 1381.63 152.683C1374.24 157.237 1369.27 169.691 1361.19 172.238C1361.42 168.927 1360.13 165.306 1358.88 162.284C1359.98 161.826 1361.26 161.373 1362.28 160.731C1364.05 159.607 1364.49 159.132 1365.08 157.143L1363.76 155.217C1364.95 150.576 1366.7 147.029 1369.78 143.358C1372.02 143.612 1377.43 145.16 1379.13 144.338L1379.36 143.376Z"/>
	<path fill="#06594D" d="M1390.09 140.255C1392.84 137.268 1391.33 134.236 1392.33 130.684C1392.84 128.887 1392.91 128.873 1394.54 127.93C1395.82 128.143 1396.28 127.939 1397.17 128.977C1399.07 131.186 1398.9 135.232 1398.74 137.976C1398.95 140.539 1398.74 140.523 1397.13 142.573C1396.15 143.61 1395.61 143.85 1394.22 144.166C1394.18 144.007 1394.15 143.842 1394.09 143.689C1393.26 141.595 1391.99 141.252 1390.09 140.255Z"/>
	<path fill="#06594D" d="M1369.78 143.358C1369.85 143.068 1369.92 142.78 1369.97 142.487C1370.62 138.536 1365.82 137.111 1369.05 132.92C1371.05 132.686 1371.69 132.922 1373.36 134.121C1375.52 135.671 1379.21 139.708 1379.36 142.472C1379.38 142.773 1379.36 143.075 1379.36 143.376L1379.13 144.338C1377.43 145.16 1372.02 143.612 1369.78 143.358Z"/>
	<path fill="#06594D" d="M1358.88 162.284C1357.77 160.278 1356.56 158.068 1357.05 155.773C1359.28 155.526 1361.51 155.211 1363.76 155.217L1365.08 157.143C1364.49 159.132 1364.05 159.607 1362.28 160.731C1361.26 161.373 1359.98 161.826 1358.88 162.284Z"/>
	<path fill="#01A385" d="M1457.85 119.323C1458.01 119.24 1458.17 119.16 1458.34 119.075C1466.66 114.667 1471.17 106.886 1481.96 109.954C1487.16 111.47 1491.53 115.006 1494.1 119.771C1495.82 122.963 1496.53 126.338 1496.57 129.94C1496.61 134.301 1493.45 136.972 1492.66 140.784C1491.48 146.484 1502.83 154.378 1494.28 162.339C1493.68 162.895 1493.03 163.288 1492.32 163.676C1490.18 162.28 1488.33 162.338 1485.87 162.235C1485.11 160.714 1483.72 159.997 1482.35 159.086C1481.27 156.713 1479.23 155.655 1477.09 154.395C1475.49 150.883 1470.28 148.889 1467.01 147.362C1465.46 145.832 1462.92 145.058 1460.93 144.197C1457.93 142.224 1454.21 141.352 1450.8 140.302L1444.65 138.694C1441.15 138.374 1437.59 137.54 1434.12 136.927C1436.85 127.484 1440.58 126.567 1443.95 119.463C1448.61 119.245 1453.18 119.083 1457.85 119.323Z"/>
	<path fill="#06594D" d="M1460.93 144.197C1461.06 144.091 1461.2 143.988 1461.34 143.879C1466.58 139.602 1468.31 132.268 1474.83 129.327L1476.65 129.587C1477.55 131.348 1477.85 132.326 1477.25 134.313C1475.93 138.688 1470.35 144.303 1467.01 147.362C1465.46 145.832 1462.92 145.058 1460.93 144.197Z"/>
	<path fill="#06594D" d="M1444.65 138.694C1444.74 138.586 1444.83 138.482 1444.92 138.37C1447.82 134.498 1445.66 127.86 1450.14 124.821C1451.88 125.325 1452.54 125.654 1453.38 127.358C1454.51 129.686 1453.83 135.762 1452.72 138.104C1452.3 138.983 1451.53 139.676 1450.8 140.302L1444.65 138.694Z"/>
	<path fill="#06594D" d="M1477.09 154.395C1481.08 152.35 1483.58 150.896 1488.12 152.356L1489.49 153.734C1489.11 155.631 1488.79 156.277 1487.08 157.339C1485.78 158.145 1483.81 158.634 1482.35 159.086C1481.27 156.713 1479.23 155.655 1477.09 154.395Z"/>
	<path fill="#EF3E6A" d="M1408.09 125.481C1415.62 124.472 1422.67 118.972 1430.41 117.513C1434.74 116.698 1440.24 116.888 1443.95 119.463C1440.58 126.567 1436.85 127.484 1434.12 136.927L1432.8 137.063C1428.9 137.494 1425.09 137.286 1421.19 137.083C1419.16 137.872 1418.33 138.09 1416.24 137.14C1415.64 136.87 1415.06 136.566 1414.49 136.265C1408.12 137.365 1404.29 142.188 1397.13 142.573C1398.74 140.523 1398.95 140.539 1398.74 137.976C1400.62 137.156 1401.7 136.117 1403.05 134.629C1405.22 132.255 1408.25 128.877 1408.09 125.481Z"/>
	<path fill="#F79D12" d="M1417.19 129.336C1421.78 127.813 1427.56 124.83 1432.19 126.91C1434.37 130.105 1433.43 133.515 1432.8 137.063C1428.9 137.494 1425.09 137.286 1421.19 137.083C1421.58 134.682 1421.72 134.059 1420.12 132.02C1419.34 131.032 1418.15 130.147 1417.19 129.336Z"/>
	<path fill="#EF3E6A" d="M1485.87 162.235C1488.33 162.338 1490.18 162.28 1492.32 163.676C1493.83 165.023 1495.58 167.512 1497.12 168.587C1500.79 171.166 1509.58 170.594 1509.99 176.929C1510.18 179.85 1507.08 183.878 1505.18 185.957C1507.13 187.802 1509.8 191.021 1509.91 193.865C1509.97 195.644 1509.2 197.213 1507.92 198.368C1507.12 199.081 1506.16 199.427 1505.17 199.798C1505.33 198.87 1505.42 198.145 1505.35 197.203C1504.54 185.91 1494.66 169.182 1485.87 162.235Z"/>
	<path fill="#F79D12" d="M1336.34 178.518C1342.78 181.346 1344.48 191.66 1351.1 195.602C1351.72 197.616 1352.02 197.703 1351.05 199.675C1346.19 202.479 1336.55 200.183 1331.39 198.774C1330.66 198.576 1330 198.332 1329.3 198.056C1329.4 197.961 1329.5 197.87 1329.59 197.772C1332.78 194.417 1336.55 183.302 1336.34 178.518Z"/>
	<path fill="#F79D12" d="M1383.7 169.529C1385.79 168.401 1388.34 168.519 1390.33 169.835C1392.32 171.151 1393.42 173.453 1393.2 175.826C1392.98 178.199 1391.47 180.258 1389.28 181.187C1386.09 182.534 1382.42 181.141 1380.92 178.023C1379.43 174.905 1380.65 171.165 1383.7 169.529Z"/>
	<path fill="#FBCA12" d="M1385.26 172.666C1386.22 172.121 1387.41 172.151 1388.35 172.744C1389.29 173.336 1389.83 174.396 1389.75 175.504C1389.68 176.612 1389 177.589 1387.99 178.049C1386.52 178.72 1384.78 178.111 1384.05 176.668C1383.31 175.225 1383.85 173.46 1385.26 172.666Z"/>
	<path fill="#F79D12" d="M1416.7 195.226C1418.88 194.419 1421.32 194.844 1423.1 196.339C1424.88 197.835 1425.72 200.17 1425.29 202.454C1424.87 204.738 1423.25 206.619 1421.06 207.378C1417.71 208.533 1414.06 206.784 1412.87 203.454C1411.68 200.125 1413.39 196.456 1416.7 195.226Z"/>
	<path fill="#FBCA12" d="M1417.8 198.397C1419.27 197.78 1420.97 198.387 1421.71 199.795C1422.45 201.202 1421.99 202.944 1420.66 203.806C1419.68 204.435 1418.43 204.46 1417.43 203.871C1416.43 203.282 1415.85 202.178 1415.93 201.02C1416.01 199.862 1416.73 198.847 1417.8 198.397Z"/>
	<path fill="#F79D12" d="M1371.43 189.748C1374.91 188.938 1378.38 191.114 1379.18 194.599C1379.97 198.084 1377.77 201.548 1374.29 202.321C1370.82 203.089 1367.39 200.914 1366.6 197.455C1365.82 193.996 1367.98 190.552 1371.43 189.748Z"/>
	<path fill="#FBCA12" d="M1371.11 193.698C1372.34 192.755 1374.08 192.907 1375.12 194.049C1376.16 195.191 1376.15 196.939 1375.1 198.069C1374.33 198.887 1373.18 199.206 1372.1 198.896C1371.03 198.586 1370.22 197.699 1370.01 196.601C1369.8 195.503 1370.23 194.381 1371.11 193.698Z"/>
	<path fill="#F79D12" d="M1393.04 192.876C1395.14 191.828 1397.64 192.003 1399.57 193.334C1401.51 194.665 1402.56 196.942 1402.33 199.277C1402.1 201.612 1400.62 203.637 1398.46 204.564C1395.26 205.94 1391.54 204.519 1390.07 201.355C1388.6 198.192 1389.92 194.435 1393.04 192.876Z"/>
	<path fill="#F79D12" d="M1462.18 200.752C1464.25 199.71 1466.73 199.867 1468.66 201.162C1470.59 202.457 1471.67 204.69 1471.49 207.006C1471.31 209.323 1469.9 211.364 1467.8 212.348C1464.61 213.841 1460.81 212.493 1459.27 209.322C1457.73 206.151 1459.03 202.333 1462.18 200.752Z"/>
	<path fill="#F79D12" d="M1454.23 177.28C1457.45 175.93 1461.16 177.39 1462.59 180.573C1464.02 183.755 1462.66 187.5 1459.51 189.016C1457.41 190.032 1454.91 189.825 1453 188.474C1451.09 187.123 1450.07 184.842 1450.32 182.516C1450.57 180.19 1452.07 178.185 1454.23 177.28Z"/>
	<path fill="#FBCA12" d="M1455.45 180.465C1456.47 179.989 1457.67 180.121 1458.57 180.806C1459.46 181.491 1459.9 182.617 1459.71 183.727C1459.52 184.838 1458.72 185.749 1457.65 186.092C1456.13 186.579 1454.49 185.799 1453.91 184.311C1453.33 182.823 1454 181.139 1455.45 180.465Z"/>
	<path fill="#F79D12" d="M1440.72 197.57C1444.14 196.863 1447.5 199.008 1448.29 202.406C1449.09 205.804 1447.03 209.217 1443.66 210.102C1441.39 210.695 1438.99 210.013 1437.37 208.321C1435.75 206.628 1435.18 204.192 1435.88 201.958C1436.58 199.724 1438.43 198.044 1440.72 197.57Z"/>
	<path fill="#FBCA12" d="M1440.27 201.518C1441.15 200.885 1442.31 200.78 1443.29 201.243C1444.27 201.707 1444.92 202.666 1444.99 203.748C1445.06 204.831 1444.54 205.866 1443.62 206.452C1442.26 207.327 1440.45 206.957 1439.54 205.619C1438.63 204.281 1438.96 202.462 1440.27 201.518Z"/>
	<path fill="#F79D12" d="M1478.33 179.652C1481.75 178.677 1485.31 180.659 1486.28 184.079C1487.26 187.498 1485.28 191.059 1481.86 192.034C1478.44 193.008 1474.88 191.026 1473.9 187.607C1472.93 184.188 1474.91 180.626 1478.33 179.652Z"/>
	<path fill="#FBCA12" d="M1478.22 183.488C1479.07 182.828 1480.2 182.678 1481.19 183.098C1482.18 183.517 1482.86 184.44 1482.98 185.507C1483.09 186.575 1482.61 187.619 1481.73 188.235C1480.42 189.154 1478.62 188.861 1477.66 187.573C1476.71 186.286 1476.96 184.474 1478.22 183.488Z"/>
	<path fill="#F79D12" d="M1486.14 202.99C1488.37 202.295 1490.81 202.867 1492.5 204.483C1494.19 206.1 1494.87 208.506 1494.27 210.768C1493.68 213.031 1491.91 214.794 1489.64 215.373C1486.26 216.238 1482.81 214.249 1481.86 210.89C1480.91 207.531 1482.8 204.026 1486.14 202.99Z"/>
	<path fill="#FBCA12" d="M1487.81 206.189C1489.31 206.096 1490.64 207.144 1490.9 208.622C1491.16 210.1 1490.27 211.538 1488.83 211.963C1487.74 212.283 1486.57 211.953 1485.81 211.112C1485.05 210.272 1484.84 209.07 1485.26 208.02C1485.69 206.971 1486.68 206.259 1487.81 206.189Z"/>
	<path fill="#F79D12" d="M1432.42 174.169C1435.8 173.638 1439.01 175.847 1439.71 179.195C1440.42 182.542 1438.38 185.856 1435.07 186.735C1432.78 187.346 1430.33 186.64 1428.71 184.899C1427.09 183.157 1426.57 180.665 1427.34 178.419C1428.12 176.173 1430.07 174.538 1432.42 174.169Z"/>
	<path fill="#FBCA12" d="M1431.54 178.084C1432.52 177.366 1433.83 177.291 1434.89 177.893C1435.94 178.495 1436.55 179.661 1436.43 180.871C1436.31 182.081 1435.49 183.109 1434.34 183.495C1432.9 183.978 1431.32 183.338 1430.62 181.989C1429.93 180.639 1430.32 178.982 1431.54 178.084Z"/>
	<path fill="#F79D12" d="M1407.81 171.854C1411.1 170.601 1414.79 172.24 1416.06 175.525C1417.34 178.809 1415.73 182.508 1412.46 183.81C1409.15 185.125 1405.4 183.493 1404.11 180.174C1402.82 176.855 1404.48 173.119 1407.81 171.854Z"/>
	<path fill="#FBCA12" d="M1409.35 175.044C1410.75 174.717 1412.19 175.44 1412.76 176.76C1413.33 178.081 1412.87 179.62 1411.67 180.415C1410.68 181.073 1409.39 181.076 1408.4 180.424C1407.41 179.772 1406.89 178.59 1407.1 177.419C1407.31 176.249 1408.2 175.314 1409.35 175.044Z"/>
	<path fill="#FEFEFE" d="M454.695 509.791C513.38 506.954 563.298 552.138 566.314 610.823C569.33 669.507 524.307 719.572 465.641 722.768C406.72 725.978 356.4 680.709 353.371 621.77C350.342 562.83 395.757 512.64 454.695 509.791Z"/>
	<path fill="#C094FD" d="M441.29 556.722C443.007 554.354 444.682 551.706 447.835 551.26C450.534 550.878 452.671 552.408 454.589 554.078C455.426 554.806 456.177 555.544 456.919 556.366C468.734 556.593 504.666 557.431 512.967 566.677C516.876 571.032 513.856 614.972 513.119 622.953C512.484 629.813 511.592 639.916 506.082 644.596C495.383 654.179 439.632 692.093 427.428 691.927C425.763 691.904 424.441 691.216 423.303 690.02C421.19 687.799 419.983 683.692 418.966 680.817L415.363 669.555C412.868 662.552 410.785 655.639 409.463 648.317C409.694 633.113 413.719 616.626 416.172 601.574C418.183 589.228 419.416 575.891 422.6 563.827C423.03 562.195 423.615 560.648 424.917 559.499C429.244 555.684 435.939 556.556 441.29 556.722Z"/>
	<path fill="#6A5193" d="M409.463 648.317C411.829 647.635 414.298 648.731 416.834 647.769C434.285 641.145 469.658 608.667 484.461 595.397C493.093 587.659 501.301 578.96 511.676 573.566C512.507 579.394 512.498 585.217 511.908 591.069C511.343 596.675 510.654 601.415 506.16 605.118C499.128 610.963 491.67 616.618 484.973 622.827L483.947 623.532C477.209 628.889 469.947 634.043 463.573 639.801L462.109 640.747C463.089 645.786 463.142 648.883 460.909 653.605L459.049 654.533C452.636 656.112 446.522 657.352 440.001 655.429L438.917 655.863C431.297 660.316 423.76 664.806 416.403 669.69L415.363 669.555C412.868 662.552 410.785 655.639 409.463 648.317Z"/>
	<path fill="#EF3E6A" d="M462.109 640.747C463.089 645.786 463.142 648.883 460.909 653.605L459.049 654.533C452.636 656.112 446.522 657.352 440.001 655.429C447.29 650.414 454.66 645.519 462.109 640.747Z"/>
	<path fill="#6A5193" d="M511.566 617.444C510.351 626.724 508.775 635.617 506.082 644.596C495.383 654.179 439.632 692.093 427.428 691.927C425.763 691.904 424.441 691.216 423.303 690.02C421.19 687.799 419.983 683.692 418.966 680.817L415.363 669.555L416.403 669.69C423.76 664.806 431.297 660.316 438.917 655.863L440.001 655.429C446.522 657.352 452.636 656.112 459.049 654.533L460.909 653.605C477.058 646.179 497.028 628.495 511.566 617.444Z"/>
	<path fill="#C094FD" d="M440.001 655.429C446.522 657.352 452.636 656.112 459.049 654.533C447.207 664.931 432.49 672.794 418.966 680.817L415.363 669.555L416.403 669.69C423.76 664.806 431.297 660.316 438.917 655.863L440.001 655.429Z"/>
	<path fill="#EF3E6A" d="M438.917 655.863C439.517 659.715 440.119 663.111 437.721 666.547C435.774 669.335 432.64 670.594 429.382 671.053C424.952 671.677 420.646 670.96 416.403 669.69C423.76 664.806 431.297 660.316 438.917 655.863Z"/>
	<path fill="#EF3E6A" d="M441.29 556.722C443.007 554.354 444.682 551.706 447.835 551.26C450.534 550.878 452.671 552.408 454.589 554.078C455.426 554.806 456.177 555.544 456.919 556.366C461.186 562.796 464.598 568.128 466.31 575.79C465.497 578.256 464.822 580.942 463.71 583.282C458.98 587.096 454.452 589.816 448.156 589.107C445.37 588.794 442.375 587.718 439.938 586.349C438.468 584.691 437.001 582.758 436.25 580.646C433.404 572.655 438.214 563.913 441.29 556.722Z"/>
	<path fill="#EF3E6A" d="M484.973 622.827C491.67 616.618 499.128 610.963 506.16 605.118C507.703 608.603 509.278 611.98 507.754 615.815C506.564 618.807 504.017 620.741 501.097 621.876C495.959 623.874 490.327 623.844 484.973 622.827Z"/>
	<path fill="#EF3E6A" d="M483.947 623.532C485.109 627.089 486.258 630.132 484.441 633.743C482.903 636.799 479.79 638.466 476.61 639.332C472.282 640.51 467.97 640.508 463.573 639.801C469.947 634.043 477.209 628.889 483.947 623.532Z"/>
	<path fill="#01A385" d="M463.71 583.282L466.233 586.02L466.1 586.961L463.223 588.177C462.412 590.222 464.52 593.824 463.757 594.649C461.127 593.395 459.289 592.083 456.383 593.148C455.702 593.397 455.041 593.679 454.377 593.97C451.792 593.404 451.64 590.833 449.067 591.585C447.626 593.15 446.677 594.86 444.542 595.23C444.42 593.579 444.432 591.835 443.758 590.302C441.878 590.407 440.017 590.485 438.133 590.474C437.829 588.911 439.091 587.668 439.938 586.349C442.375 587.718 445.37 588.794 448.156 589.107C454.452 589.816 458.98 587.096 463.71 583.282Z"/>
	<path fill="#FEFEFE" d="M705.131 66.5975C755.014 60.1193 800.644 95.4718 806.84 145.399C813.037 195.326 777.434 240.763 727.481 246.68C677.923 252.55 632.931 217.284 626.784 167.753C620.637 118.221 655.643 73.0243 705.131 66.5975Z"/>
	<path fill="#06594D" d="M680.323 126.062C681.078 123.628 682.001 121.309 683.657 119.333C688.761 113.243 696.575 118.967 703.298 117.367C709.894 115.798 714.939 106.79 719.589 106.487C724.449 106.172 728.845 110.544 732.383 113.407C742.633 112.488 752.905 112.322 763.191 112.272C764.86 123.043 764.902 133.93 766.303 144.714C767.792 156.177 771.018 167.585 771.48 179.155C771.544 180.756 771.036 182.101 770.116 183.404C768.395 185.843 765.683 187.973 763.221 189.621L749.147 201.245C736.718 212.718 727.86 213.981 711.511 213.55C706.266 213.259 701.018 213.014 695.769 212.814C689.668 212.974 682.105 213.905 676.223 212.043C673.967 211.328 672.978 210.235 671.905 208.17C667.807 200.285 667.659 189.718 665.505 181.138C662.977 171.072 658.149 161.348 656.308 151.17C655.805 148.388 655.71 145.413 656.643 142.708C658.806 136.441 665.61 133.998 671.059 131.277L680.323 126.062Z"/>
	<path fill="#91D6B9" d="M719.459 130.719C723.668 131.036 731.219 130.747 734.291 133.971C741.93 141.99 744.435 187.648 749.147 201.245C736.718 212.718 727.86 213.981 711.511 213.55C712.148 200.521 707.548 185.558 704.769 172.802L704.241 168.665C702.486 161.001 701.215 152.899 700.073 145.113C699.778 143.106 699.281 142.31 700.551 140.605C705.736 141.117 711.22 141.359 716.267 142.693C718.626 142.076 720.599 141.644 722.478 139.973C723.059 138.096 723.337 137.21 722.464 135.282C721.754 133.711 720.458 132.133 719.459 130.719Z"/>
	<path fill="#01A385" d="M704.241 168.665C707.95 169.06 711.659 169.401 715.393 169.264C718.226 169.159 722.799 167.54 725.334 168.523L724.926 169.68C719.992 172.02 707.714 168.331 704.769 172.802L704.241 168.665Z"/>
	<path fill="#91D6B9" d="M695.769 212.814C689.668 212.974 682.105 213.905 676.223 212.043C673.967 211.328 672.978 210.235 671.905 208.17C667.807 200.285 667.659 189.718 665.505 181.138C662.977 171.072 658.149 161.348 656.308 151.17C655.805 148.388 655.71 145.413 656.643 142.708C658.806 136.441 665.61 133.998 671.059 131.277L671.704 132.205C678.461 132.485 684.584 132.883 691.075 134.912L681.278 139.546L681.361 141.432C685.274 165.41 691.472 188.913 695.769 212.814Z"/>
	<path fill="#01A385" d="M661.37 140.44C668.032 139.886 674.592 139.523 681.278 139.546L681.361 141.432C674.609 141.48 668.075 141.273 661.37 140.44Z"/>
	<path fill="#91D6B9" d="M732.383 113.407C742.633 112.488 752.905 112.322 763.191 112.272C764.86 123.043 764.902 133.93 766.303 144.714C767.792 156.177 771.018 167.585 771.48 179.155C771.544 180.756 771.036 182.101 770.116 183.404C768.395 185.843 765.683 187.973 763.221 189.621C760.409 178.205 756.298 130.778 748.489 124.863C743.464 121.057 730.859 123.546 725.015 124.157C728.012 121.729 735.004 118.508 736.826 115.515C737.398 114.577 737.29 115 737.016 113.908L732.383 113.407Z"/>
	<path fill="#90B8B2" d="M700.551 140.605C704.579 138.034 708.612 135.755 712.858 133.569L716.267 142.693C711.22 141.359 705.736 141.117 700.551 140.605Z"/>
	<path fill="#91D6B9" d="M690.447 122.54C693.426 122.39 697.571 121.765 700.399 122.659C701.565 123.027 701.489 123.188 702.056 124.266L701.188 125.899C699.039 126.156 696.841 126.482 694.679 126.556C692.537 126.63 691.704 126.411 690.124 125.003L690.447 122.54Z"/>
	<path fill="#91D6B9" d="M718.74 113.62L720.157 114.228L720.477 115.586C718.61 118.196 715.085 119.998 712.399 121.742C711.235 121.754 710.811 121.471 709.871 120.81C711.029 117.167 715.561 115.333 718.74 113.62Z"/>
</svg>
