<?xml version="1.0" encoding="utf-8" ?>
<svg xmlns="http://www.w3.org/2000/svg" xmlns:xlink="http://www.w3.org/1999/xlink" width="675" height="450">
	<path fill="#F2F8FB" d="M283.982 68.1397C292.129 62.9108 302.687 62.356 311.979 64.3719C341.975 70.8796 361.186 104.819 378.262 127.695C383.081 134.151 388.266 140.149 393.797 146C397.098 146.118 400.731 145.639 403.955 146.094C402.563 143.265 400.387 140.844 398.507 138.334C393.323 131.416 390.937 123.561 392.059 114.902C393.136 106.519 397.542 98.9223 404.282 93.8254C411.068 88.6009 419.532 86.484 427.994 87.6166C436.107 88.7124 443.458 92.9735 448.443 99.4701C450.843 102.619 455.047 109.428 454.494 113.447C456.24 117.894 454.439 126.773 452.628 130.975C450.207 136.596 445.943 140.818 443.017 146.093C441.049 149.835 439.753 153.53 438.596 157.581L463.786 157.602C464.383 158.627 464.294 159.763 464.311 160.907C464.686 186.944 464.301 213.034 464.312 239.077C464.314 243.831 464.875 265.352 464.146 268.367C464.086 268.614 463.999 268.818 463.892 269.046C463.95 269.851 464.051 270.063 463.622 270.77C461.26 270.709 458.808 266.862 456.43 265.928C456.292 265.101 451.648 259.896 450.831 259.287C450.973 258.705 450.853 258.452 450.653 257.911C449.616 256.892 448.093 256.667 446.732 256.304C444.613 256.043 442.506 255.658 440.385 256.055L440.27 256.584C440.223 256.645 440.177 256.707 440.129 256.767C439.031 258.135 436.911 259.124 436.3 260.745C434.721 264.937 435.917 271.159 435.529 275.698C434.977 282.153 433.816 288.765 432.342 295.061C431.625 298.855 431.421 302.379 431.906 306.221L431.747 306.491C432.795 306.802 434.162 307.081 434.769 308.083C435.29 308.942 435.205 310.328 435.326 311.315C435.562 321.825 435.879 332.333 436.277 342.838C436.245 344.846 436.192 346.852 436.117 348.858C415.322 348.485 394.495 349.801 373.7 349.406C372.896 351.972 376.117 359.267 377.467 361.82C380.253 367.089 384.917 372.701 390.835 374.478C391.316 374.623 391.804 374.724 392.3 374.802C395.749 375.136 399.383 375.433 402.329 377.453C405.602 379.698 406.609 383.098 407.334 386.803L331.256 386.724C310.585 386.722 289.889 386.512 269.22 386.812C269.685 384.113 270.34 381.62 272.073 379.431C275.141 375.554 279.797 375.317 284.337 374.822C284.405 374.806 284.473 374.792 284.54 374.775C290.391 373.309 294.871 368.839 297.944 363.807C299.723 360.891 303.385 353.29 302.603 350.044L206.962 351.11C202.955 340.267 199.787 328.914 196.33 317.875C195.782 316.086 195.351 313.964 194.257 312.43C193.596 314.205 192.743 316.645 191.138 317.788C187.947 320.062 182.126 314.815 178.89 313.749C176.248 312.88 173.079 312.706 170.317 312.245C169.264 315.381 168.274 318.537 167.345 321.711C166.77 324.74 166.121 328.514 164.919 331.335C162.977 340.314 160.475 343.515 157.34 351.385L153.203 351.445L151.293 351.43C140.699 351.271 130.08 351.452 119.483 351.456C112.42 351.458 105.312 351.637 98.2946 350.691C95.1224 350.264 91.6452 349.601 88.8991 347.883C87.2061 346.824 85.8123 345.329 85.4183 343.304C83.8435 335.214 103.69 310.083 108.844 302.255C108.785 301.702 108.737 301.147 108.701 300.592C108.314 294.429 112.715 291.798 116.355 287.656C116.295 283.472 114.929 277.8 116.742 273.937C117.81 271.663 119.541 271.036 121.74 270.242C123.123 270.929 124.325 271.659 125.559 272.59C126.459 268.931 128.36 265.149 129.64 261.578C132.032 254.886 133.863 248.005 135.113 241.009C137.711 226.299 136.473 211.534 138.417 196.8C140.257 182.847 145.027 167.063 156.691 158.156C168.921 148.818 188.978 147.114 203.722 149.074C205.562 148.591 206.843 146.872 208.917 146.446C214.073 145.386 221.015 146.058 226.389 146.063C234.059 146.07 241.92 145.745 249.567 146.237C249.837 146.128 250.14 146.079 250.377 145.91C250.717 145.668 251.716 137.863 253.621 135.297C256.507 131.41 260.85 130.277 265.401 129.652C262.702 128.506 258.826 127.517 257.267 124.77C255.575 121.789 257.499 116.027 258.241 112.841C257.53 110.651 259.995 105.058 260.898 102.88C263.459 96.6986 264.491 94.7378 270.759 92.1321C271.414 89.5581 272.118 86.9966 272.868 84.4487L272.907 84.1936C272.397 82.5457 272.231 80.8587 272.116 79.1451C271.958 76.7948 272.346 74.5428 273.964 72.7415C276.388 70.0445 280.449 68.2859 283.982 68.1397Z"/>
	<path fill="#E0EAF2" d="M200.727 293.331C200.799 293.31 200.872 293.287 200.945 293.266C201.067 293.231 201.19 293.2 201.311 293.163C204.46 292.222 207.232 293.822 209.359 293.074C210.175 292.122 210.886 291.403 211.965 290.75C212.057 290.694 212.15 290.641 212.243 290.586L212.265 295.064L432.342 295.061C431.625 298.855 431.421 302.379 431.906 306.221L431.747 306.491C432.795 306.802 434.162 307.081 434.769 308.083C435.29 308.942 435.205 310.328 435.326 311.315C435.562 321.825 435.879 332.333 436.277 342.838C436.245 344.846 436.192 346.852 436.117 348.858C415.322 348.485 394.495 349.801 373.7 349.406C372.896 351.972 376.117 359.267 377.467 361.82C380.253 367.089 384.917 372.701 390.835 374.478C391.316 374.623 391.804 374.724 392.3 374.802C395.749 375.136 399.383 375.433 402.329 377.453C405.602 379.698 406.609 383.098 407.334 386.803L331.256 386.724C310.585 386.722 289.889 386.512 269.22 386.812C269.685 384.113 270.34 381.62 272.073 379.431C275.141 375.554 279.797 375.317 284.337 374.822C284.405 374.806 284.473 374.792 284.54 374.775C290.391 373.309 294.871 368.839 297.944 363.807C299.723 360.891 303.385 353.29 302.603 350.044L206.962 351.11C202.955 340.267 199.787 328.914 196.33 317.875C197.77 317.687 199.025 317.191 200.044 316.119C202.345 313.697 201.877 309.565 201.78 306.502C201.449 304.363 201.103 302.225 200.745 300.09L200.727 293.331Z"/>
	<path fill="#D4DEEB" d="M304.786 341.055C312.187 340.355 320.148 340.867 327.609 340.865L372.732 340.85C372.744 343.107 372.298 347.573 373.7 349.406C372.896 351.972 376.117 359.267 377.467 361.82C380.253 367.089 384.917 372.701 390.835 374.478C391.316 374.623 391.804 374.724 392.3 374.802C395.749 375.136 399.383 375.433 402.329 377.453C405.602 379.698 406.609 383.098 407.334 386.803L331.256 386.724C310.585 386.722 289.889 386.512 269.22 386.812C269.685 384.113 270.34 381.62 272.073 379.431C275.141 375.554 279.797 375.317 284.337 374.822C284.405 374.806 284.473 374.792 284.54 374.775C290.391 373.309 294.871 368.839 297.944 363.807C299.723 360.891 303.385 353.29 302.603 350.044C303.794 348.875 304.273 343.007 304.786 341.055Z"/>
	<path fill="#E0EAF2" d="M392.3 374.802C395.749 375.136 399.383 375.433 402.329 377.453C405.602 379.698 406.609 383.098 407.334 386.803L331.256 386.724C310.585 386.722 289.889 386.512 269.22 386.812C269.685 384.113 270.34 381.62 272.073 379.431C275.141 375.554 279.797 375.317 284.337 374.822C292.942 375.682 301.818 375.239 310.46 375.221L353.349 375.175L376.785 375.249C381.628 375.279 387.627 375.939 392.3 374.802Z"/>
	<path fill="#1F3B72" d="M200.727 293.331C200.799 293.31 200.872 293.287 200.945 293.266C201.067 293.231 201.19 293.2 201.311 293.163C204.46 292.222 207.232 293.822 209.359 293.074C210.175 292.122 210.886 291.403 211.965 290.75C212.057 290.694 212.15 290.641 212.243 290.586L212.265 295.064L432.342 295.061C431.625 298.855 431.421 302.379 431.906 306.221L431.747 306.491L201.78 306.502C201.449 304.363 201.103 302.225 200.745 300.09L200.727 293.331Z"/>
	<path fill="#F2F8FB" d="M372.732 340.85C374.885 340.586 377.472 341.023 379.663 341.082C384.153 341.188 388.644 341.227 393.135 341.2L419.533 341.186C424.783 341.153 430.258 340.803 435.48 341.226C436.034 341.671 436.107 342.185 436.277 342.838C436.245 344.846 436.192 346.852 436.117 348.858C415.322 348.485 394.495 349.801 373.7 349.406C372.298 347.573 372.744 343.107 372.732 340.85Z"/>
	<path fill="#1F3B72" d="M337.734 317.977C340.86 317.689 343.641 319.961 343.982 323.083C344.324 326.205 342.1 329.024 338.985 329.419C336.922 329.68 334.879 328.808 333.641 327.138C332.402 325.467 332.16 323.259 333.009 321.36C333.857 319.461 335.663 318.168 337.734 317.977Z"/>
	<path fill="#F2F8FB" d="M125.559 272.59C126.459 268.931 128.36 265.149 129.64 261.578C132.032 254.886 133.863 248.005 135.113 241.009C137.711 226.299 136.473 211.534 138.417 196.8C140.257 182.847 145.027 167.063 156.691 158.156C168.921 148.818 188.978 147.114 203.722 149.074C203.793 149.602 201.48 153.834 201.082 154.988C200.049 157.981 200.758 183.762 200.755 189.046L200.748 288.186C201.619 288.223 202.216 288.193 203.043 287.904C203.605 286.991 203.559 286.443 203.613 285.395L203.988 285.247C206.168 285.289 208.255 286.673 210.398 285.479C211.064 286.177 211.703 286.864 212.29 287.632C212.293 288.597 212.374 289.631 212.243 290.586C212.15 290.641 212.057 290.694 211.965 290.75C210.886 291.403 210.175 292.122 209.359 293.074C207.232 293.822 204.46 292.222 201.311 293.163C201.19 293.2 201.067 293.231 200.945 293.266C200.872 293.287 200.799 293.31 200.727 293.331L200.745 300.09C201.103 302.225 201.449 304.363 201.78 306.502C201.877 309.565 202.345 313.697 200.044 316.119C199.025 317.191 197.77 317.687 196.33 317.875C195.782 316.086 195.351 313.964 194.257 312.43C193.596 314.205 192.743 316.645 191.138 317.788C187.947 320.062 182.126 314.815 178.89 313.749C176.248 312.88 173.079 312.706 170.317 312.245C169.264 315.381 168.274 318.537 167.345 321.711C166.77 324.74 166.121 328.514 164.919 331.335C162.977 340.314 160.475 343.515 157.34 351.385L153.203 351.445L151.293 351.43C140.699 351.271 130.08 351.452 119.483 351.456C112.42 351.458 105.312 351.637 98.2946 350.691C95.1224 350.264 91.6452 349.601 88.8991 347.883C87.2061 346.824 85.8123 345.329 85.4183 343.304C83.8435 335.214 103.69 310.083 108.844 302.255C108.785 301.702 108.737 301.147 108.701 300.592C108.314 294.429 112.715 291.798 116.355 287.656C116.295 283.472 114.929 277.8 116.742 273.937C117.81 271.663 119.541 271.036 121.74 270.242C123.123 270.929 124.325 271.659 125.559 272.59Z"/>
	<path fill="#9C96DB" d="M140.197 280.098C139.135 278.298 137.751 276.701 136.575 274.974C134.966 272.613 133.738 269.805 134.338 266.897C136.112 258.293 145.781 244.985 153.196 240.311C154.518 239.477 156.285 238.657 157.868 239.098C163.984 240.801 165.943 249.729 168.701 254.567C168.748 254.65 168.798 254.732 168.846 254.815C163.774 257.694 156.389 260.987 154.782 267.103C154.256 269.103 154.357 271.782 155.424 273.592C156.207 274.92 157.619 275.622 159.08 275.941C159.812 276.101 160.557 276.213 161.298 276.323C160.153 277.659 159.006 279.056 159.166 280.945C159.291 282.439 160.429 283.681 161.569 284.556C164.483 286.793 168.111 287.785 170.683 290.51C170.426 292.114 170.16 293.717 169.886 295.318C169.259 298.887 166.702 308.36 168.731 311.223C169.117 311.768 169.732 311.951 170.317 312.245C169.264 315.381 168.274 318.537 167.345 321.711C166.77 324.74 166.121 328.514 164.919 331.335C162.977 340.314 160.475 343.515 157.34 351.385L153.203 351.445L151.293 351.43C140.699 351.271 130.08 351.452 119.483 351.456C112.42 351.458 105.312 351.637 98.2946 350.691C95.1224 350.264 91.6452 349.601 88.8991 347.883C87.2061 346.824 85.8123 345.329 85.4183 343.304C83.8435 335.214 103.69 310.083 108.844 302.255C108.785 301.702 108.737 301.147 108.701 300.592C108.314 294.429 112.715 291.798 116.355 287.656C116.295 283.472 114.929 277.8 116.742 273.937C117.81 271.663 119.541 271.036 121.74 270.242C123.123 270.929 124.325 271.659 125.559 272.59C129.196 279.473 127.363 285.066 129.791 291.467C132.603 289.464 136.509 288.331 138.813 285.764C140.432 283.96 140.327 282.363 140.197 280.098Z"/>
	<path fill="#80E5BC" d="M116.355 287.656C116.295 283.472 114.929 277.8 116.742 273.937C117.81 271.663 119.541 271.036 121.74 270.242C123.123 270.929 124.325 271.659 125.559 272.59C129.196 279.473 127.363 285.066 129.791 291.467C131.573 294.827 135.562 300.234 134.509 304.118C134.389 304.564 134.199 304.992 134.007 305.411C131.588 308.266 129.615 311.319 128.638 314.954C129.67 317.178 130.909 319.378 132.426 321.313C132.998 324.384 133.167 327.242 132.923 330.372C137.826 336.683 143.625 342.209 151.213 345.103C151.518 346.978 152.014 348.998 151.89 350.898L151.293 351.43C140.699 351.271 130.08 351.452 119.483 351.456C112.42 351.458 105.312 351.637 98.2946 350.691C95.1224 350.264 91.6452 349.601 88.8991 347.883C87.2061 346.824 85.8123 345.329 85.4183 343.304C83.8435 335.214 103.69 310.083 108.844 302.255C108.785 301.702 108.737 301.147 108.701 300.592C108.314 294.429 112.715 291.798 116.355 287.656Z"/>
	<path fill="#F2F8FB" d="M108.844 302.255C110.222 305.241 111.544 308.297 112.419 311.475C108.494 314.787 104.183 317.197 103.744 322.796C103.321 328.197 105.839 334.804 109.397 338.83C112.39 342.215 116.323 343.809 120.727 344.295C121.106 345.074 121.783 346.967 122.46 347.387C122.531 346.875 122.621 346.394 122.534 345.878C122.505 345.672 122.454 345.38 122.482 345.178C122.632 344.09 124.452 343.582 125.371 343.069C129.867 340.558 131.633 335.035 132.923 330.372C137.826 336.683 143.625 342.209 151.213 345.103C151.518 346.978 152.014 348.998 151.89 350.898L151.293 351.43C140.699 351.271 130.08 351.452 119.483 351.456C112.42 351.458 105.312 351.637 98.2946 350.691C95.1224 350.264 91.6452 349.601 88.8991 347.883C87.2061 346.824 85.8123 345.329 85.4183 343.304C83.8435 335.214 103.69 310.083 108.844 302.255Z"/>
	<path fill="#2DCC81" d="M121.372 299.298C121.031 296.52 120.501 282.216 121.716 280.441C121.938 280.117 121.952 280.134 122.218 279.923C122.947 282.949 122.124 288.855 122.126 292.226C122.13 296.718 122.584 301.107 122.258 305.61C124.167 304.78 125.527 304.431 126.56 302.531C126.86 303.041 126.845 303.187 126.672 303.774C126.449 304.533 125.642 305.344 124.932 305.684C124.178 306.046 123.248 306.208 122.434 306.398C121.245 309.761 117.857 321.03 118.959 324.034C119.429 324.398 119.524 324.542 120.157 324.426C121.607 324.16 123.311 322.372 124.393 321.444L124.277 321.536L124.749 321.686C124.163 322.858 123.563 323.769 122.688 324.746C121.209 325.225 119.788 325.686 118.243 325.895C118.521 332.185 120.046 340.103 122.534 345.878C122.621 346.394 122.531 346.875 122.46 347.387C121.783 346.967 121.106 345.074 120.727 344.295C120.092 340.154 118.504 335.859 117.35 331.821C115.936 331.35 114.646 330.483 113.364 329.732C112.207 328.803 111.027 327.727 110.268 326.435C109.602 325.301 109.308 323.694 109.656 322.431L110.215 322.275C110.98 323.22 110.845 324.415 110.878 325.579C111.796 326.706 112.809 327.763 113.793 328.833C114.937 329.425 116.073 330.019 117.192 330.657C117.095 327.804 117.182 325.057 117.62 322.225C118.326 317.652 122.423 303.58 121.283 300.065C119.82 298.839 116.387 296.587 116.157 294.643L116.557 294.137C118.218 295.897 119.508 297.649 121.372 299.298Z"/>
	<path fill="#F2F8FB" d="M167.345 321.711C166.619 320.378 166.557 318.854 165.878 317.499C164.366 314.484 160.727 312.228 158.324 309.881C157.439 309.017 156.847 308.247 156.613 307.006C156.803 304.361 167.426 297.712 169.886 295.318C169.259 298.887 166.702 308.36 168.731 311.223C169.117 311.768 169.732 311.951 170.317 312.245C169.264 315.381 168.274 318.537 167.345 321.711Z"/>
	<path fill="#F2F8FB" d="M134.007 305.411C135.993 306.921 139.536 309.009 140.007 311.63C140.217 312.799 139.64 313.971 138.936 314.866C137.059 317.251 134.296 318.901 132.426 321.313C130.909 319.378 129.67 317.178 128.638 314.954C129.615 311.319 131.588 308.266 134.007 305.411Z"/>
	<path fill="#F2F8FB" d="M152.22 345.208C157.252 343.651 161.775 336.061 164.109 331.629L164.31 331.24L164.919 331.335C162.977 340.314 160.475 343.515 157.34 351.385L153.203 351.445C152.442 349.935 152.439 346.951 152.22 345.208Z"/>
	<path fill="#7E77C5" d="M151.213 345.103C147.295 324.417 145.787 295.26 150.276 274.735C150.719 272.709 150.959 269.496 152.049 267.784C152.2 267.548 152.293 267.508 152.498 267.369L152.794 267.517C152.243 271.762 150.643 275.808 150.118 280.097C147.977 297.575 148.456 311.875 149.968 329.291C150.411 334.391 150.692 340.311 152.22 345.208C152.439 346.951 152.442 349.935 153.203 351.445L151.293 351.43L151.89 350.898C152.014 348.998 151.518 346.978 151.213 345.103Z"/>
	<path fill="#FED225" d="M183.423 260.531C185.955 261.381 187.601 262.596 189.088 264.836C193.421 273.178 196.5 278.784 197.16 288.417C198.328 288.253 199.567 288.251 200.748 288.186C201.619 288.223 202.216 288.193 203.043 287.904C203.605 286.991 203.559 286.443 203.613 285.395L203.988 285.247C206.168 285.289 208.255 286.673 210.398 285.479C211.064 286.177 211.703 286.864 212.29 287.632C212.293 288.597 212.374 289.631 212.243 290.586C212.15 290.641 212.057 290.694 211.965 290.75C210.886 291.403 210.175 292.122 209.359 293.074C207.232 293.822 204.46 292.222 201.311 293.163C201.19 293.2 201.067 293.231 200.945 293.266C200.872 293.287 200.799 293.31 200.727 293.331L200.745 300.09C201.103 302.225 201.449 304.363 201.78 306.502C201.877 309.565 202.345 313.697 200.044 316.119C199.025 317.191 197.77 317.687 196.33 317.875C195.782 316.086 195.351 313.964 194.257 312.43C193.596 314.205 192.743 316.645 191.138 317.788C187.947 320.062 182.126 314.815 178.89 313.749C176.248 312.88 173.079 312.706 170.317 312.245C169.732 311.951 169.117 311.768 168.731 311.223C166.702 308.36 169.259 298.887 169.886 295.318C170.16 293.717 170.426 292.114 170.683 290.51C171.755 287.498 172.141 284.082 172.916 280.961C174.639 274.019 176.914 264.439 183.423 260.531Z"/>
	<path fill="#F2B189" d="M198.285 294.012C194.406 295.767 188.95 296.033 184.723 296.094C182.137 296.132 176.309 296.778 174.356 294.88C173.338 292.27 174.268 288.495 174.818 285.791C175.85 280.717 178.352 270.998 182.986 268.165C183.723 267.714 184.706 267.396 185.569 267.632C186.291 267.829 186.9 268.478 187.225 269.133C189.917 274.549 185.294 283.699 183.613 289C187.877 289.001 192.978 289.24 197.16 288.417C198.328 288.253 199.567 288.251 200.748 288.186C201.619 288.223 202.216 288.193 203.043 287.904C203.605 286.991 203.559 286.443 203.613 285.395L203.988 285.247C206.168 285.289 208.255 286.673 210.398 285.479C211.064 286.177 211.703 286.864 212.29 287.632C212.293 288.597 212.374 289.631 212.243 290.586C212.15 290.641 212.057 290.694 211.965 290.75C210.886 291.403 210.175 292.122 209.359 293.074C207.232 293.822 204.46 292.222 201.311 293.163C201.19 293.2 201.067 293.231 200.945 293.266C200.872 293.287 200.799 293.31 200.727 293.331L200.745 300.09C199.716 298.526 199.4 296.113 198.875 294.302L198.285 294.012Z"/>
	<path fill="#EBB906" d="M198.285 294.012L198.875 294.302C199.4 296.113 199.716 298.526 200.745 300.09C201.103 302.225 201.449 304.363 201.78 306.502C201.877 309.565 202.345 313.697 200.044 316.119C199.025 317.191 197.77 317.687 196.33 317.875C195.782 316.086 195.351 313.964 194.257 312.43C194.669 310.365 195.479 308.399 195.889 306.314C196.668 302.359 196.534 297.681 198.285 294.012Z"/>
	<path fill="#0A2752" d="M168.846 254.815C171.765 252.337 174.347 249.382 177.76 247.572C177.68 249.172 177.548 250.79 177.628 252.391C175.802 255.559 174.465 258.651 173.245 262.093C170.667 269.363 169.215 273.82 161.298 276.323C160.557 276.213 159.812 276.101 159.08 275.941C157.619 275.622 156.207 274.92 155.424 273.592C154.357 271.782 154.256 269.103 154.782 267.103C156.389 260.987 163.774 257.694 168.846 254.815Z"/>
	<path fill="#0A2752" d="M178.797 246.538C179.551 245.578 180.414 244.567 181.418 243.865C184.264 241.876 187.955 241.788 191.247 242.433C192.934 242.764 194.704 243.457 195.641 244.993C196.31 246.088 196.06 247.014 195.816 248.188C195.726 248.207 195.636 248.228 195.545 248.245C194.039 248.537 191.955 247.972 190.677 248.536C190.326 249.404 190.337 250.177 190.325 251.098C189.712 252.134 188.642 252.515 187.601 253.033C187.453 254.826 187.557 257.804 186.022 258.998C185.54 259.373 184.851 259.541 184.273 259.711C182.756 259.564 181.296 259.252 180.104 258.237C177.196 255.76 179.108 250.007 178.797 246.538Z"/>
	<path fill="#F2B189" d="M195.816 248.188C195.686 250.804 196.393 252.93 197.299 255.361C195.63 257.305 195.005 259.601 194.22 261.996C192.212 262.719 190.622 263.284 189.088 264.836C187.601 262.596 185.955 261.381 183.423 260.531L184.273 259.711C184.851 259.541 185.54 259.373 186.022 258.998C187.557 257.804 187.453 254.826 187.601 253.033C188.642 252.515 189.712 252.134 190.325 251.098C190.337 250.177 190.326 249.404 190.677 248.536C191.955 247.972 194.039 248.537 195.545 248.245C195.636 248.228 195.726 248.207 195.816 248.188Z"/>
	<path fill="#F2F8FB" d="M283.982 68.1397C292.129 62.9108 302.687 62.356 311.979 64.3719C341.975 70.8796 361.186 104.819 378.262 127.695C383.081 134.151 388.266 140.149 393.797 146C385.39 146.309 376.921 146.094 368.505 146.088C349.958 146.073 331.387 145.894 312.843 146.147C312.469 142.415 312.274 138.337 309.983 135.195C307.08 131.213 302.512 130.278 297.944 129.566L297.11 129.599C296.867 127.649 297.202 125.69 297.56 123.779C296.538 120.588 297.365 120.423 294.72 117.779C292.272 119.708 271.531 116.668 267.782 118.651C266.881 119.128 266.605 120.25 266.492 121.189C266.376 122.153 266.4 123.162 266.392 124.133C266.394 126.036 266.312 127.982 266.502 129.875L265.401 129.652C262.702 128.506 258.826 127.517 257.267 124.77C255.575 121.789 257.499 116.027 258.241 112.841C257.53 110.651 259.995 105.058 260.898 102.88C263.459 96.6986 264.491 94.7378 270.759 92.1321C271.414 89.5581 272.118 86.9966 272.868 84.4487L272.907 84.1936C272.397 82.5457 272.231 80.8587 272.116 79.1451C271.958 76.7948 272.346 74.5428 273.964 72.7415C276.388 70.0445 280.449 68.2859 283.982 68.1397Z"/>
	<path fill="#1A90F9" d="M270.759 92.1321C272.768 91.8424 274.774 91.5262 276.775 91.1835C277.054 92.8216 277.522 94.4556 278.927 95.4962C279.805 96.1473 280.921 96.5188 282.019 96.363C283.007 96.2228 283.997 95.6525 284.542 94.8015C285.117 93.9019 285.393 92.3176 285.398 91.258C290.513 92.2262 296.188 93.0533 299.37 97.6737C300.736 99.6581 306.118 111.45 305.653 113.356C305.617 113.505 305.568 113.652 305.516 113.797C302.967 114.368 300.428 114.979 297.808 115.112C298.123 117.237 299.278 121.471 297.956 123.294C297.793 123.52 297.766 123.538 297.56 123.779C296.538 120.588 297.365 120.423 294.72 117.779C292.272 119.708 271.531 116.668 267.782 118.651C266.881 119.128 266.605 120.25 266.492 121.189C266.376 122.153 266.4 123.162 266.392 124.133C266.394 126.036 266.312 127.982 266.502 129.875L265.401 129.652C262.702 128.506 258.826 127.517 257.267 124.77C255.575 121.789 257.499 116.027 258.241 112.841C257.53 110.651 259.995 105.058 260.898 102.88C263.459 96.6986 264.491 94.7378 270.759 92.1321Z"/>
	<path fill="#F2B189" d="M258.241 112.841C260.944 113.503 263.573 114.024 266.367 114.139C265.833 116.531 264.244 121.001 265.704 123.202C265.918 123.525 266.153 123.829 266.392 124.133C266.394 126.036 266.312 127.982 266.502 129.875L265.401 129.652C262.702 128.506 258.826 127.517 257.267 124.77C255.575 121.789 257.499 116.027 258.241 112.841Z"/>
	<path fill="#F2F8FB" d="M294.373 110.858C295.463 112.338 296.579 113.746 297.808 115.112C298.123 117.237 299.278 121.471 297.956 123.294C297.793 123.52 297.766 123.538 297.56 123.779C296.538 120.588 297.365 120.423 294.72 117.779C294.393 115.531 294.459 113.132 294.373 110.858Z"/>
	<path fill="#0077D0" d="M270.066 105.417C270.273 105.624 270.357 105.886 270.479 106.149C270.203 108.584 269.326 110.992 268.287 113.199C268.012 112.98 267.909 112.858 267.747 112.533C267.44 111.919 269.696 106.438 270.066 105.417Z"/>
	<path fill="#F2B189" d="M272.907 84.1936C272.397 82.5457 272.231 80.8587 272.116 79.1451C271.958 76.7948 272.346 74.5428 273.964 72.7415C276.388 70.0445 280.449 68.2859 283.982 68.1397C285.88 68.8377 288.262 69.4564 289.144 71.4805C290.006 73.459 289.832 76.2533 290.243 78.3959C289.84 79.3695 289.237 80.0087 288.533 80.7649C287.862 82.1663 288.019 83.7908 287.662 85.289C287.395 86.4084 286.631 87.5227 286.089 88.5287C285.651 89.3415 285.052 90.0332 285.293 91.0107C285.315 91.0975 285.363 91.1755 285.398 91.258C285.393 92.3176 285.117 93.9019 284.542 94.8015C283.997 95.6525 283.007 96.2228 282.019 96.363C280.921 96.5188 279.805 96.1473 278.927 95.4962C277.522 94.4556 277.054 92.8216 276.775 91.1835C274.774 91.5262 272.768 91.8424 270.759 92.1321C271.414 89.5581 272.118 86.9966 272.868 84.4487L272.907 84.1936Z"/>
	<path fill="#0A2752" d="M272.907 84.1936C272.397 82.5457 272.231 80.8587 272.116 79.1451C271.958 76.7948 272.346 74.5428 273.964 72.7415C276.388 70.0445 280.449 68.2859 283.982 68.1397C285.88 68.8377 288.262 69.4564 289.144 71.4805C290.006 73.459 289.832 76.2533 290.243 78.3959C289.84 79.3695 289.237 80.0087 288.533 80.7649C288.484 80.6325 288.432 80.5011 288.385 80.3678C288.147 79.6853 288.165 78.9628 288.15 78.2485L287.858 77.9331C283.997 78.6103 280.124 78.6767 276.213 78.7278C276.537 80.6363 276.712 82.4955 276.8 84.4288L274.08 79.7186C273.774 81.1942 273.562 82.8346 272.907 84.1936Z"/>
	<path fill="#F2F8FB" d="M272.868 84.4487C274.282 85.4308 276.437 88.1363 276.73 89.8647C276.806 90.3078 276.817 90.7381 276.775 91.1835C274.774 91.5262 272.768 91.8424 270.759 92.1321C271.414 89.5581 272.118 86.9966 272.868 84.4487Z"/>
	<path fill="#F2B189" d="M297.808 115.112C300.428 114.979 302.967 114.368 305.516 113.797C306.292 117.257 306.814 121.039 306.752 124.589C303.38 127.799 299.976 127.852 297.944 129.566L297.11 129.599C296.867 127.649 297.202 125.69 297.56 123.779C297.766 123.538 297.793 123.52 297.956 123.294C299.278 121.471 298.123 117.237 297.808 115.112Z"/>
	<path fill="#FED225" d="M403.955 146.094C402.563 143.265 400.387 140.844 398.507 138.334C393.323 131.416 390.937 123.561 392.059 114.902C393.136 106.519 397.542 98.9223 404.282 93.8254C411.068 88.6009 419.532 86.484 427.994 87.6166C436.107 88.7124 443.458 92.9735 448.443 99.4701C450.843 102.619 455.047 109.428 454.494 113.447C456.24 117.894 454.439 126.773 452.628 130.975C450.207 136.596 445.943 140.818 443.017 146.093C441.049 149.835 439.753 153.53 438.596 157.581C437.693 160.286 438.104 163.292 437.424 166.028C436.797 165.524 436.189 165.058 435.381 164.903C431.449 164.149 417.236 164.483 412.97 164.968C411.951 165.083 411.171 165.426 410.319 165.989C409.012 163.681 409.618 160.173 408.731 157.549C407.801 153.487 406.186 149.613 403.955 146.094Z"/>
	<path fill="#EBB906" d="M410.371 129.874C411.306 128.734 412.32 127.691 413.893 127.554C414.99 127.458 415.937 127.945 416.719 128.675C418.66 130.488 419.319 132.892 419.931 135.385C421.749 136.38 425.277 135.827 427.372 135.726C427.705 132.39 428.764 130.532 430.988 128.072C433.261 128.285 435.547 128.151 437.159 130.017C437.381 130.847 437.496 131.209 437.068 132.025C435.989 134.077 432.729 135.272 430.61 135.749C429.926 135.903 429.235 135.99 428.538 136.055C428.499 142.634 428.857 149.209 429.611 155.745C429.871 157.977 430.564 160.291 430.727 162.494C430.772 163.11 430.702 163.839 430.265 164.305C429.791 164.218 429.555 164.266 429.306 163.794C428.414 162.106 427.042 138.881 427.744 136.648C425.358 136.358 422.309 136.84 419.835 136.833C419.844 146.423 419.131 156.001 417.704 165.484C416.5 159.994 418.042 153.326 418.442 147.735C418.719 143.858 418.721 139.96 418.749 136.074C415.903 135.764 412.299 134.931 410.342 132.77C409.862 131.695 410.115 130.965 410.371 129.874Z"/>
	<path fill="#FED225" d="M431.454 128.766C432.962 128.858 434.578 129.366 435.662 130.453C435.883 131.139 436.027 131.352 435.727 132.049C435.196 133.286 433.343 133.823 432.185 134.311C430.85 134.757 429.375 134.987 427.997 135.293C428.847 132.806 429.751 130.789 431.454 128.766Z"/>
	<path fill="#FED225" d="M410.929 130.257C412.138 129.64 413.587 128.919 414.971 129.336C416.129 129.685 416.915 130.705 417.418 131.755C417.952 132.869 418.396 134.024 418.651 135.235C416.688 135.255 413.713 134.317 412.139 133.09C411.011 132.211 411.047 131.548 410.929 130.257Z"/>
	<path fill="#0A2752" d="M294.72 117.779C297.365 120.423 296.538 120.588 297.56 123.779C297.202 125.69 296.867 127.649 297.11 129.599L297.944 129.566C302.512 130.278 307.08 131.213 309.983 135.195C312.274 138.337 312.469 142.415 312.843 146.147C312.689 149.875 312.51 153.889 312.769 157.61C312.856 159.682 312.385 161.633 312.299 163.684C312.204 165.955 312.621 168.231 312.433 170.507C312.326 171.805 311.886 173.063 310.821 173.879C309.4 174.97 306.611 175.433 304.862 175.149C304.107 175.027 303.429 174.669 303.027 174.01C301.868 172.11 304.422 166.652 304.942 164.478C304.17 162.24 303.784 159.913 303.342 157.593L274.356 157.539C269.762 157.533 264.611 157.076 260.09 157.691C260.004 160.112 258.719 162.599 258.899 164.902C259.12 167.736 261.811 171.075 260.813 173.836C260.11 174.625 259.469 174.86 258.41 174.935C256.564 175.066 253.864 174.897 252.476 173.539C251.768 172.846 251.469 171.911 251.311 170.957C250.961 168.849 251.42 166.481 251.371 164.334C251.321 162.105 250.887 159.842 250.79 157.587C250.961 154.318 251.166 149.833 250.376 146.647L249.567 146.237C249.837 146.128 250.14 146.079 250.377 145.91C250.717 145.668 251.716 137.863 253.621 135.297C256.507 131.41 260.85 130.277 265.401 129.652L266.502 129.875C266.312 127.982 266.394 126.036 266.392 124.133C266.4 123.162 266.376 122.153 266.492 121.189C266.605 120.25 266.881 119.128 267.782 118.651C271.531 116.668 292.272 119.708 294.72 117.779Z"/>
	<path fill="#D4DEEB" d="M294.72 117.779C297.365 120.423 296.538 120.588 297.56 123.779C297.202 125.69 296.867 127.649 297.11 129.599C297.081 132.249 297.781 137.45 296.168 139.476C292.397 140.767 271.514 140.653 267.451 139.456C266.685 138.73 266.564 137.987 266.531 136.948C266.457 134.636 266.791 132.159 266.502 129.875C266.312 127.982 266.394 126.036 266.392 124.133C266.4 123.162 266.376 122.153 266.492 121.189C266.605 120.25 266.881 119.128 267.782 118.651C271.531 116.668 292.272 119.708 294.72 117.779Z"/>
	<path fill="#1F3B72" d="M261.641 145.322C264.117 145.722 266.608 146.135 269.113 146.281C273.689 146.549 297.596 146.991 300.09 145.459C300.551 145.175 300.788 145.078 301.326 144.981C302.497 145.98 302.745 155.081 303.254 157.23L303.342 157.593L274.356 157.539C269.762 157.533 264.611 157.076 260.09 157.691C260.602 153.464 261.461 149.638 261.641 145.322Z"/>
	<path fill="#1F3B72" d="M203.722 149.074C205.562 148.591 206.843 146.872 208.917 146.446C214.073 145.386 221.015 146.058 226.389 146.063C234.059 146.07 241.92 145.745 249.567 146.237L250.376 146.647C251.166 149.833 250.961 154.318 250.79 157.587C237.958 157.582 225.062 157.298 212.238 157.6L212.246 239.084C212.247 253.334 211.781 267.753 212.353 281.982C212.356 283.865 212.378 285.75 212.29 287.632C211.703 286.864 211.064 286.177 210.398 285.479C208.255 286.673 206.168 285.289 203.988 285.247L203.613 285.395C203.559 286.443 203.605 286.991 203.043 287.904C202.216 288.193 201.619 288.223 200.748 288.186L200.755 189.046C200.758 183.762 200.049 157.981 201.082 154.988C201.48 153.834 203.793 149.602 203.722 149.074Z"/>
	<path fill="#9C96DB" d="M203.613 285.395C203.476 284.916 203.23 284.518 203.451 284.057L204.418 283.983L204.659 283.517L204.065 282.413C204.075 281.609 204.127 281.249 204.716 280.654C205.422 279.943 206.573 279.804 207.519 279.871C209.704 280.026 210.887 280.326 212.353 281.982C212.356 283.865 212.378 285.75 212.29 287.632C211.703 286.864 211.064 286.177 210.398 285.479C208.255 286.673 206.168 285.289 203.988 285.247L203.613 285.395Z"/>
	<path fill="#D4DEEB" d="M203.988 285.247C204.252 284.967 204.47 284.734 204.648 284.389C204.821 284.056 204.98 283.624 205.269 283.371C205.869 282.845 207.618 282.214 208.407 282.209C209.014 282.205 209.732 282.482 210.132 282.943C210.712 283.611 210.444 284.632 210.398 285.479C208.255 286.673 206.168 285.289 203.988 285.247Z"/>
	<path fill="#1F3B72" d="M393.797 146C397.098 146.118 400.731 145.639 403.955 146.094C406.186 149.613 407.801 153.487 408.731 157.549L345.994 157.565C334.931 157.567 323.826 157.372 312.769 157.61C312.51 153.889 312.689 149.875 312.843 146.147C331.387 145.894 349.958 146.073 368.505 146.088C376.921 146.094 385.39 146.309 393.797 146Z"/>
	<path fill="#F2F8FB" d="M337.143 149.169C338.58 148.563 340.239 149.207 340.891 150.624C341.543 152.041 340.953 153.72 339.559 154.418C338.615 154.891 337.489 154.811 336.622 154.211C335.754 153.611 335.282 152.585 335.39 151.536C335.499 150.486 336.171 149.579 337.143 149.169Z"/>
	<path fill="#E0EAF2" d="M418.001 183.309C418.646 183.78 419.845 184.427 420.283 185.055C420.107 185.446 420.095 185.358 420.078 185.692C420.013 186.927 419.929 188.148 419.821 189.38L340.155 189.475C330.577 189.487 320.998 189.444 311.421 189.346C308.428 189.322 305.38 189.693 302.404 189.536C301.471 189.487 300.245 189.355 299.463 188.824C298.856 188.413 298.593 187.989 298.506 187.278C298.422 186.594 298.68 185.829 299.155 185.328C299.976 184.463 301.371 184.214 302.516 184.149C304.391 184.042 306.301 184.346 308.184 184.32C316.004 184.213 323.791 184.366 331.611 184.375L383.202 184.378C393.532 184.377 403.878 184.53 414.205 184.274C415.696 184.237 416.923 184.443 418.001 183.309Z"/>
	<path fill="#1F3B72" d="M410.319 165.989C411.171 165.426 411.951 165.083 412.97 164.968C417.236 164.483 431.449 164.149 435.381 164.903C436.189 165.058 436.797 165.524 437.424 166.028C438.284 170.22 436.668 170.079 435.764 173.437C436.822 174.605 438.316 176.788 438.209 178.437C438.158 179.231 437.67 179.824 437.042 180.25C434.832 181.751 431.834 180.773 430.086 182.737C428.336 184.562 426.557 185.722 423.961 185.778C422.705 185.805 421.448 185.509 420.283 185.055C419.845 184.427 418.646 183.78 418.001 183.309L417.951 182.94C416.113 180.925 413.572 181.817 411.188 180.698C410.429 180.343 409.878 179.88 409.684 179.028C409.275 177.229 410.882 174.866 411.759 173.422C411.523 172.386 410.657 171.378 410.203 170.398C409.438 168.746 409.726 167.595 410.319 165.989Z"/>
	<path fill="#0A2752" d="M417.951 182.94L418.161 182.04C420.281 181.018 426.585 181.087 428.972 181.831C429.563 182.016 429.715 182.275 430.086 182.737C428.336 184.562 426.557 185.722 423.961 185.778C422.705 185.805 421.448 185.509 420.283 185.055C419.845 184.427 418.646 183.78 418.001 183.309L417.951 182.94Z"/>
	<path fill="#0A2752" d="M411.969 173.457C413.881 172.471 432.211 172.216 434.573 172.801C434.972 172.9 435.234 173.112 435.529 173.388C433.501 173.925 413.976 173.844 411.969 173.457Z"/>
	<path fill="#0A2752" d="M440.008 253.23C439.022 252.668 438.509 252.145 438.018 251.102C436.475 247.827 435.893 243.036 437.18 239.587C438.044 237.272 439.934 235.489 442.171 234.502C445.263 233.137 450.256 232.804 453.4 234.099C454.439 234.528 455.735 235.301 456.148 236.414C456.416 237.137 456.326 237.847 455.983 238.528C455.473 239.538 454.724 239.886 453.691 240.23C453.593 240.263 453.494 240.293 453.395 240.324C454.095 242.639 454.903 245.017 454.911 247.45C454.354 248.251 453.946 248.272 453.05 248.61C453.861 249.241 454.708 249.964 454.803 251.061C454.876 251.895 454.595 252.598 454.007 253.204C452.223 255.04 449.563 255.692 447.122 256.021L446.732 256.304C444.613 256.043 442.506 255.658 440.385 256.055C440.331 255.102 440.351 254.131 440.008 253.23Z"/>
	<path fill="#F2B189" d="M453.05 248.61C451.061 247.769 448.811 248.629 446.751 247.953C446.13 247.473 445.833 247.101 445.622 246.328C445.419 245.585 445.541 244.904 445.946 244.251C447.437 241.847 450.847 240.999 453.395 240.324C454.095 242.639 454.903 245.017 454.911 247.45C454.354 248.251 453.946 248.272 453.05 248.61Z"/>
	<path fill="#F2B189" d="M440.008 253.23L440.204 252.96C441.147 251.642 442.128 246.222 443.09 246.046C445.227 249.531 442.807 252.854 447.122 256.021L446.732 256.304C444.613 256.043 442.506 255.658 440.385 256.055C440.331 255.102 440.351 254.131 440.008 253.23Z"/>
	<path fill="#E0EAF2" d="M299.337 255.377L299.638 255.141C304.416 255.161 309.183 254.394 313.968 254.296C332.777 253.91 351.67 254.27 370.489 254.274C383.031 254.276 395.808 253.675 408.313 254.357C410.572 254.481 412.576 254.697 414.722 255.449C414.851 255.502 414.979 255.557 415.109 255.609C416.674 256.226 418.613 255.888 419.966 256.965C420.277 257.891 420.215 258.545 419.766 259.448C419.361 260.261 418.752 260.791 417.868 261.017C415.028 261.744 408.616 261.162 405.348 261.149L378.346 261.134L325.696 261.137C317.152 261.139 307.346 261.805 298.925 260.888C299.009 259.048 299.05 257.198 299.337 255.377Z"/>
	<path fill="#D4DEEB" d="M299.337 255.377L299.638 255.141C304.416 255.161 309.183 254.394 313.968 254.296C332.777 253.91 351.67 254.27 370.489 254.274C383.031 254.276 395.808 253.675 408.313 254.357C410.572 254.481 412.576 254.697 414.722 255.449C411.452 255.882 408.208 255.153 404.926 255.045C397.35 254.796 389.339 254.558 381.784 255.082C382.315 255.322 382.901 255.614 383.493 255.624C384.461 255.639 385.377 255.241 386.351 255.232C393.218 255.169 401.385 254.903 408.129 255.538L408.123 255.751C407.262 256.264 406.468 256.555 405.455 256.585C401.996 256.688 398.524 256.061 395.057 256.046C392.134 256.034 389.225 256.41 386.309 256.393C383.459 256.377 380.612 255.986 377.764 256.03C373.48 256.096 365.945 256.97 361.883 255.914C361.407 255.79 360.808 255.702 360.497 255.317L360.83 255.401C362.044 255.699 362.59 255.712 363.792 255.279L363.947 255.105C359.298 254.703 353.915 254.615 349.286 255.143L349.631 255.05L349.637 255.256L349.297 255.147L350.414 255.016C352.372 256.673 356.763 254.07 358.955 255.717C358.352 256.315 357.923 256.542 357.031 256.54C353.617 256.533 350.209 256.086 346.8 256.066C340.59 256.028 334.394 256.97 328.232 255.483L331.882 255.305C325.093 254.425 317.365 254.821 310.513 255.037C313.016 255.714 315.701 254.55 318.241 255.548C321.099 256.672 324.012 254.109 327.067 255.773C326.216 256.627 324.43 256.507 323.287 256.507C319.453 256.506 315.603 256.098 311.767 255.959C307.813 255.817 303.182 256.199 299.337 255.377Z"/>
	<path fill="#E0EAF2" d="M260.545 215.269C264.593 214.823 273.263 214.802 277.306 215.4C280.208 215.83 281.774 216.723 283.527 219.086C283.862 225.798 283.889 232.87 283.355 239.569C282.436 240.812 281.489 241.806 280.135 242.572C275.144 242.632 265.165 243.365 260.803 242.515C259.691 242.298 258.585 241.861 257.793 241.024C255.202 238.282 256.308 222.893 256.342 218.488C257.583 217.081 258.918 216.175 260.545 215.269Z"/>
	<path fill="#E0EAF2" d="M257.528 188.552C257.499 188.191 257.475 187.83 257.455 187.469C257.349 185.529 257.135 182.758 258.632 181.266C260.921 178.986 276.277 179.955 279.982 180.14C280.627 180.77 281.311 181.319 282.019 181.875C283.116 182.253 284.481 182.656 285.04 183.773C285.369 184.432 285.342 185.008 285.119 185.711C284.726 186.947 283.361 188.074 282.461 188.959C285.041 192.704 284.212 199.267 283.871 203.703C282.979 204.621 282.111 205.601 281.127 206.42C274.982 206.796 265.731 206.642 259.516 206.305C258.172 205.4 256.068 204.258 255.769 202.516C255.414 200.455 257.095 198.275 257.629 196.285C257.062 195.601 256.493 194.914 255.973 194.194C255.329 193.301 254.695 192.285 254.956 191.132C255.257 189.801 256.46 189.206 257.528 188.552Z"/>
	<path fill="#E0EAF2" d="M257.629 196.285C259.178 198.107 260.708 200 262.348 201.74C263.053 202.488 264.496 204.069 265.579 204.054C268.339 204.014 279.926 191.492 282.461 188.959C285.041 192.704 284.212 199.267 283.871 203.703C282.979 204.621 282.111 205.601 281.127 206.42C274.982 206.796 265.731 206.642 259.516 206.305C258.172 205.4 256.068 204.258 255.769 202.516C255.414 200.455 257.095 198.275 257.629 196.285Z"/>
	<path fill="#2DCC81" d="M282.019 181.875C283.116 182.253 284.481 182.656 285.04 183.773C285.369 184.432 285.342 185.008 285.119 185.711C284.726 186.947 283.361 188.074 282.461 188.959C279.926 191.492 268.339 204.014 265.579 204.054C264.496 204.069 263.053 202.488 262.348 201.74C260.708 200 259.178 198.107 257.629 196.285C257.062 195.601 256.493 194.914 255.973 194.194C255.329 193.301 254.695 192.285 254.956 191.132C255.257 189.801 256.46 189.206 257.528 188.552C260.749 189.837 263.721 194.542 265.865 197.245C270.848 192.883 276.892 185.197 282.019 181.875Z"/>
	<path fill="#E0EAF2" d="M303.12 220.033C310.176 219.753 317.272 219.977 324.335 219.983L360.682 219.969L396.661 219.989C402.573 219.982 408.566 219.731 414.47 219.939C415.731 219.983 417.172 220.078 418.352 220.567C419.255 220.941 419.664 221.522 419.949 222.454C420.188 223.232 419.991 223.564 419.577 224.208C418.578 224.765 417.805 225.01 416.684 225.203C401.114 226.011 384.439 225.391 368.717 225.407L322.909 225.388C316.586 225.382 310.231 225.593 303.913 225.47C302.629 225.445 300.882 225.485 299.688 224.94C298.783 224.528 298.636 224.234 298.303 223.371C298.465 222.509 298.777 221.941 299.358 221.279C300.441 220.047 301.585 220.122 303.12 220.033Z"/>
	<path fill="#9C96DB" d="M256.719 255.449C256.594 255 256.606 254.6 256.642 254.138C256.714 253.197 256.918 252.518 257.698 251.934C258.701 251.183 259.828 251.311 260.984 251.531C266.962 251.232 273.187 251.2 279.164 251.509C280.322 251.446 281.563 251.334 282.518 252.137C283.103 252.628 283.391 253.426 283.45 254.171C283.484 254.602 283.436 255.045 283.388 255.473C284.19 261.866 284.367 268.251 283.457 274.648C283.467 274.772 283.482 274.896 283.487 275.021C283.518 275.807 283.024 277.203 282.441 277.736C282.039 278.105 281.507 278.261 280.962 278.207C277.399 277.851 272.404 271.375 270.136 268.735C267.635 271.244 262.525 278.022 259.011 278.231C258.401 278.267 257.944 278.058 257.524 277.619C256.797 276.858 256.626 275.628 256.614 274.621C255.686 270.45 255.913 259.663 256.719 255.449Z"/>
	<path fill="#D4DEEB" d="M274.137 264.711C277.261 261.673 280.345 258.593 283.388 255.473C284.19 261.866 284.367 268.251 283.457 274.648C281.009 271.013 277.206 267.85 274.137 264.711Z"/>
	<path fill="#D4DEEB" d="M256.719 255.449C259.773 258.545 262.778 261.726 266.051 264.594C262.987 267.988 259.434 271.028 256.614 274.621C255.686 270.45 255.913 259.663 256.719 255.449Z"/>
	<path fill="#D4DEEB" d="M260.984 251.531C266.962 251.232 273.187 251.2 279.164 251.509C275.993 254.495 273.051 257.798 269.965 260.883C267.147 257.638 263.993 254.604 260.984 251.531Z"/>
	<path fill="#E0EAF2" d="M299.87 196.611C305.822 196.291 311.941 196.604 317.913 196.606L354.761 196.616L392.288 196.639C399.628 196.615 407.094 196.273 414.421 196.606C415.797 196.668 418.352 196.803 419.432 197.744C419.875 198.13 420.214 198.653 420.172 199.254C420.106 200.184 419.292 201.151 418.61 201.733C408.79 202.029 398.925 201.882 389.1 201.881L341.677 201.874L313.43 201.878C309.486 201.88 305.158 202.314 301.254 201.944C300.398 201.863 299.757 201.489 299.1 200.963C298.786 200.471 298.487 199.997 298.499 199.393C298.521 198.303 299.084 197.321 299.87 196.611Z"/>
	<path fill="#E0EAF2" d="M307.731 232.574C344.331 232.493 381.005 232.096 417.598 232.577C418.836 233.296 420.024 233.992 420.485 235.42C420.366 236.028 420.371 236.299 419.871 236.721C417.876 238.41 414.147 238.031 411.73 237.922C400.93 237.523 390.047 237.779 379.238 237.779L315.113 237.74C311.025 237.715 306.914 238.107 302.843 238.011C302.009 237.991 301.036 237.933 300.263 237.598C299.488 237.262 298.864 236.746 298.631 235.905C298.415 235.128 298.63 234.393 298.977 233.704C300.861 231.975 305.239 232.573 307.731 232.574Z"/>
	<path fill="#E0EAF2" d="M412.706 268.534C414.832 268.39 417.266 267.861 419.068 269.23C419.935 269.888 420.416 270.444 420.579 271.506C420.427 271.791 420.295 272.057 420.046 272.274C418.861 273.307 416.441 273.532 414.933 273.635C410.853 273.915 406.627 273.713 402.532 273.707L379.437 273.671L305.447 273.686C303.908 273.701 302.032 273.874 300.548 273.481C299.545 273.216 299.226 272.798 298.741 271.967C298.655 270.889 298.834 270.23 299.259 269.243C300.126 268.724 301.054 268.631 302.046 268.591C312.13 268.191 322.428 268.622 332.531 268.623C359.241 268.625 386.003 268.982 412.706 268.534Z"/>
	<path fill="#F2F8FB" d="M454.494 113.447C454.608 113.379 454.724 113.315 454.836 113.243C456.218 112.357 458.316 109.347 459.653 108.002C467.502 100.106 476.422 96.6564 487.519 98.5694C489.902 98.9802 495.685 99.928 497.148 101.823C497.58 102.382 497.684 102.853 497.567 103.56C497.325 105.022 496.124 106.155 494.91 106.882C491.917 108.673 484.318 109.319 482.719 111.229C481.313 112.91 481.219 115.417 479.823 117.032C491.592 117.587 502.051 123.653 509.855 132.256C521.566 145.164 527.561 161.672 531.495 178.372C532.304 181.803 533.674 185.924 533.584 189.425C533.571 189.946 533.392 190.353 533.177 190.82L533.465 190.645C540.91 186.026 544.93 166.315 550.359 167.346C552.507 167.753 554.398 170.431 555.446 172.173C560.479 180.537 563.577 192.245 565.869 201.702C566.909 205.998 567.724 210.477 569.204 214.64C570.77 219.047 573.108 223.1 575.489 227.106C582.427 238.775 587.919 247.672 588.721 261.671C589.038 267.21 588.841 272.969 587.476 278.37C586.841 280.883 585.292 285.921 583.081 287.435C583.644 289.239 584.531 291.244 583.936 293.126C584.999 297.283 580.289 300.954 580.814 304.931C581.661 311.344 592.105 309.73 589.32 322.751C588.645 325.904 587.393 329.185 585.771 331.971C583.416 336.017 579.234 339.344 574.677 340.523C574.01 340.696 573.35 340.82 572.664 340.886L572.377 341.194L571.401 341.254L569.779 340.93C567.992 340.615 566.375 339.752 564.97 338.621C560.614 335.113 558.219 328.622 558.002 323.156C557.933 321.414 558.431 319.655 558.21 317.93C558.203 317.87 558.192 317.811 558.183 317.752C559.757 314.8 562.728 311.817 562.317 308.236C562 305.471 559.282 301.734 557.171 300.025C555.829 300.49 554.564 300.638 553.16 300.774C553.897 308.052 552.998 327.427 550.766 334.63C550.556 337.122 550.252 339.91 549.34 342.25C549.57 343.592 549.432 345.953 548.697 347.126C548.324 347.721 547.817 348.176 547.119 348.309C546.561 348.416 545.933 348.237 545.385 348.123C547.088 350.351 556.32 371.622 556.101 373.592C556.072 373.849 556.022 373.931 555.929 374.19L556.209 375.22C555.177 376.362 551.945 376.385 550.483 376.461C549.439 376.515 548.37 376.596 547.325 376.561C546.414 374.437 544.5 372.152 543.287 370.132C540.893 366.147 538.82 361.666 536.111 357.907C535.711 357.352 535.202 356.917 534.634 356.543C534.791 356.877 534.935 357.223 535.005 357.587C535.556 360.457 532.878 383.79 531.184 386.286C530.814 386.38 530.479 386.469 530.095 386.491C527.307 386.656 513.768 387.089 511.983 385.657C512.372 382.469 520.875 382.445 522.986 379.534C523.545 378.53 523.215 348.353 523.038 345.212C522.708 339.36 521.693 333.569 521.46 327.708C521.256 322.61 521.831 311.087 520.804 306.87C520.827 305.774 520.597 304.755 520.67 303.613L520.791 302.817L519.985 302.011C519.944 303.512 518.701 305.249 517.98 306.544C513.356 314.848 507.436 322.145 500.55 328.666C499.85 329.329 499.141 329.982 498.423 330.625C497.478 331.459 496.462 332.221 495.995 333.431L496.079 334.053C496.809 334.01 497.133 333.895 497.621 333.316C498.097 332.751 498.621 331.782 498.749 331.062C498.809 331.028 498.87 330.994 498.93 330.958C501.236 329.573 503.114 326.5 506.291 327.432C506.736 327.562 507.345 327.984 507.548 328.414C508.009 329.39 508.004 330.285 507.588 331.285C506.807 333.163 504.934 334.46 503.087 335.15C501.099 335.894 498.431 336.271 496.328 335.978C495.201 335.699 494.396 335.815 493.286 336.122C492.664 336.056 492.012 336.003 491.414 336.223C488.964 337.124 486.495 338.893 484.155 340.134C478.422 343.174 471.415 345.932 464.972 346.826C465.243 340.953 461.69 314.629 459.334 310.19C458.503 310.042 458.137 310.575 457.505 310.537C456.897 310.5 455.65 309.778 455.038 309.517C449.861 307.313 445.841 305.737 440.11 306.807C438.681 307.074 436.646 307.373 435.414 308.117C435.319 309.193 435.306 310.238 435.326 311.315C435.205 310.328 435.29 308.942 434.769 308.083C434.162 307.081 432.795 306.802 431.747 306.491L431.906 306.221C431.421 302.379 431.625 298.855 432.342 295.061C433.816 288.765 434.977 282.153 435.529 275.698C435.917 271.159 434.721 264.937 436.3 260.745C436.911 259.124 439.031 258.135 440.129 256.767C440.177 256.707 440.223 256.645 440.27 256.584L440.385 256.055C442.506 255.658 444.613 256.043 446.732 256.304C448.093 256.667 449.616 256.892 450.653 257.911C450.853 258.452 450.973 258.705 450.831 259.287C451.648 259.896 456.292 265.101 456.43 265.928C458.808 266.862 461.26 270.709 463.622 270.77C464.051 270.063 463.95 269.851 463.892 269.046C463.999 268.818 464.086 268.614 464.146 268.367C464.875 265.352 464.314 243.831 464.312 239.077C464.301 213.034 464.686 186.944 464.311 160.907C464.294 159.763 464.383 158.627 463.786 157.602L438.596 157.581C439.753 153.53 441.049 149.835 443.017 146.093C445.943 140.818 450.207 136.596 452.628 130.975C454.439 126.773 456.24 117.894 454.494 113.447ZM540.442 312.216C541.573 314.742 539.714 334.021 538.566 337.21C538.444 337.549 538.26 337.857 538.072 338.162C539.308 339.164 543.742 345.857 544.188 345.853C546.623 336.065 550.907 310.323 549.546 300.826C548.209 300.964 546.936 300.965 545.594 300.915C544.122 303.942 542.431 309.821 540.442 312.216Z"/>
	<path fill="#9C96DB" d="M557.171 300.025C557.592 298.563 555.954 296.646 556.33 294.906C557.155 291.089 560.597 288.082 561.717 284.236C563.19 279.176 562.754 273.729 564.165 268.704C564.785 266.494 565.989 263.957 568.123 262.858C569.452 262.174 571.05 262.237 572.436 262.716C573.978 263.25 575.295 264.448 575.907 265.973C576.803 268.204 576.718 278.445 575.808 280.78C578.358 282.118 580.832 285.344 582.71 287.522L583.081 287.435C583.644 289.239 584.531 291.244 583.936 293.126C584.999 297.283 580.289 300.954 580.814 304.931C581.661 311.344 592.105 309.73 589.32 322.751C588.645 325.904 587.393 329.185 585.771 331.971C583.416 336.017 579.234 339.344 574.677 340.523C574.01 340.696 573.35 340.82 572.664 340.886L572.377 341.194L571.401 341.254L569.779 340.93C567.992 340.615 566.375 339.752 564.97 338.621C560.614 335.113 558.219 328.622 558.002 323.156C557.933 321.414 558.431 319.655 558.21 317.93C558.203 317.87 558.192 317.811 558.183 317.752C559.757 314.8 562.728 311.817 562.317 308.236C562 305.471 559.282 301.734 557.171 300.025Z"/>
	<path fill="#7E77C5" d="M569.709 300.073C569.345 300.007 568.982 299.935 568.619 299.863C567.106 299.563 565.476 298.555 564.56 297.288C564.431 297.109 564.419 297.031 564.36 296.844C565.874 297.659 567.675 299.047 569.343 299.352C569.453 299.243 569.614 299.167 569.673 299.024C569.765 298.796 570.125 286.899 570.128 285.88C570.145 280.796 569.337 275.916 570.061 270.833L570.118 270.822C570.763 275.923 571.045 281.063 570.962 286.204C570.868 289.892 570.399 293.757 570.727 297.429C571.351 304.401 577.32 321.027 574.044 326.603L574.45 326.486C577.069 325.718 579.929 324.345 581.249 321.822C581.868 320.64 582.176 319.364 583.223 318.482L583.625 318.652C583.557 320.869 582.314 322.314 580.76 323.779C578.998 325.441 577.089 326.453 574.887 327.398C575.093 331.721 572.65 336.475 572.664 340.886L572.377 341.194L571.401 341.254L569.779 340.93C570.186 340.895 571.244 340.942 571.504 340.651C572.793 339.208 574.491 324.801 574.111 322.139C574.075 321.886 574.03 321.635 573.985 321.384C573.968 321.285 573.953 321.185 573.935 321.086C573.924 321.027 573.911 320.968 573.899 320.908C573.553 320.85 573.215 320.798 572.867 320.762C571.127 320.582 568.952 319.848 567.87 318.413C567.333 317.701 567.136 317.115 567.103 316.234L567.341 315.685C568.196 316.432 568.352 317.49 569.088 318.29C570.197 319.494 572.103 319.459 573.44 320.184C574.285 317.804 570.982 303.059 569.709 300.073Z"/>
	<path fill="#7E77C5" d="M575.215 288.295L576.041 288.29L576.267 288.706C576.199 288.838 576.135 288.971 576.062 289.1C575.402 290.262 573.706 291.626 572.396 291.925L572.066 291.978C571.911 291.656 574.928 289.5 575.215 288.295Z"/>
	<defs>
		<linearGradient id="gradient_0" gradientUnits="userSpaceOnUse" x1="501.88837" y1="355.49924" x2="548.71973" y2="338.32648">
			<stop offset="0" stop-color="#03183B"/>
			<stop offset="1" stop-color="#123464"/>
		</linearGradient>
	</defs>
	<path fill="url(#gradient_0)" d="M520.67 303.613C523.957 303.865 527.22 304.45 530.498 304.675L535.343 305.41L535.546 305.881C535.649 306.751 535.785 307.316 535.256 308.093C535.097 308.327 535.013 308.385 534.82 308.555C535.125 309.79 534.975 310.618 534.446 311.766C535.829 312.205 538.129 312.915 539.132 313.918C539.998 313.281 540.12 313.228 540.442 312.216C541.573 314.742 539.714 334.021 538.566 337.21C538.444 337.549 538.26 337.857 538.072 338.162C539.308 339.164 543.742 345.857 544.188 345.853C544.503 346.715 544.836 347.386 545.385 348.123C547.088 350.351 556.32 371.622 556.101 373.592C556.072 373.849 556.022 373.931 555.929 374.19L556.209 375.22C555.177 376.362 551.945 376.385 550.483 376.461C549.439 376.515 548.37 376.596 547.325 376.561C546.414 374.437 544.5 372.152 543.287 370.132C540.893 366.147 538.82 361.666 536.111 357.907C535.711 357.352 535.202 356.917 534.634 356.543C534.791 356.877 534.935 357.223 535.005 357.587C535.556 360.457 532.878 383.79 531.184 386.286C530.814 386.38 530.479 386.469 530.095 386.491C527.307 386.656 513.768 387.089 511.983 385.657C512.372 382.469 520.875 382.445 522.986 379.534C523.545 378.53 523.215 348.353 523.038 345.212C522.708 339.36 521.693 333.569 521.46 327.708C521.256 322.61 521.831 311.087 520.804 306.87C520.827 305.774 520.597 304.755 520.67 303.613Z"/>
	<path fill="#1F3B72" d="M520.67 303.613C523.957 303.865 527.22 304.45 530.498 304.675L535.343 305.41L535.546 305.881C535.649 306.751 535.785 307.316 535.256 308.093C535.097 308.327 535.013 308.385 534.82 308.555C533.596 307.809 523.281 307.363 520.804 306.87C520.827 305.774 520.597 304.755 520.67 303.613Z"/>
	<path fill="#F2B189" d="M534.446 311.766C535.829 312.205 538.129 312.915 539.132 313.918C539.186 314.179 539.225 314.304 539.234 314.554C539.277 315.736 538.333 316.658 537.586 317.456C536.786 316.348 533.68 315.326 532.4 314.76C533.447 313.92 533.943 312.972 534.446 311.766Z"/>
	<path fill="#2DCC81" d="M440.385 256.055C442.506 255.658 444.613 256.043 446.732 256.304C448.093 256.667 449.616 256.892 450.653 257.911C450.853 258.452 450.973 258.705 450.831 259.287C451.648 259.896 456.292 265.101 456.43 265.928C456.816 268.065 457.462 270.137 457.742 272.296C458.054 274.708 457.619 280.038 458.486 281.795C459.636 281.859 463.139 281.62 463.919 282.184C464.183 283.232 464.182 283.463 463.897 284.505C466.535 286.366 470.68 284.219 473.06 286.734L473.166 286.844C473.472 288.802 473.636 290.965 474.557 292.741C475.044 293.005 475.408 293.056 475.603 293.607C475.872 294.367 475.551 295.649 475.283 296.396C476.016 298.494 476.193 304.381 475.233 306.326C475.204 306.386 475.169 306.444 475.137 306.503C470.127 306.518 465.063 306.397 460.06 306.601C460.059 307.878 459.804 309.007 459.334 310.19C458.503 310.042 458.137 310.575 457.505 310.537C456.897 310.5 455.65 309.778 455.038 309.517C449.861 307.313 445.841 305.737 440.11 306.807C438.681 307.074 436.646 307.373 435.414 308.117C435.319 309.193 435.306 310.238 435.326 311.315C435.205 310.328 435.29 308.942 434.769 308.083C434.162 307.081 432.795 306.802 431.747 306.491L431.906 306.221C431.421 302.379 431.625 298.855 432.342 295.061C433.816 288.765 434.977 282.153 435.529 275.698C435.917 271.159 434.721 264.937 436.3 260.745C436.911 259.124 439.031 258.135 440.129 256.767C440.177 256.707 440.223 256.645 440.27 256.584L440.385 256.055Z"/>
	<path fill="#1F3B72" d="M474.557 292.741C475.044 293.005 475.408 293.056 475.603 293.607C475.872 294.367 475.551 295.649 475.283 296.396C476.016 298.494 476.193 304.381 475.233 306.326C475.204 306.386 475.169 306.444 475.137 306.503C470.127 306.518 465.063 306.397 460.06 306.601C460.103 306.392 460.118 306.338 460.142 306.103C460.337 304.134 458.653 298.907 457.368 297.339C457.658 296.427 457.63 295.94 457.341 295.031C459.164 295.058 462.026 295.434 463.655 294.668C466.633 293.246 470.825 295.172 473.747 293.878C474.364 293.604 474.35 293.335 474.557 292.741Z"/>
	<path fill="#00AF70" d="M437.335 275.2C438.012 276.885 438.281 278.862 438.841 280.618C440.111 284.605 441.733 288.225 443.687 291.921C447.592 292.707 451.643 292.794 455.447 293.54C456.176 293.683 456.4 293.75 456.817 294.347L457.341 295.031C457.63 295.94 457.658 296.427 457.368 297.339C455.352 297.052 453.274 297.044 451.242 296.887C447.455 296.595 443.349 295.497 440.823 292.467C436.878 287.734 436.837 281.007 437.335 275.2Z"/>
	<path fill="#00AF70" d="M440.385 256.055C442.506 255.658 444.613 256.043 446.732 256.304C448.093 256.667 449.616 256.892 450.653 257.911C450.853 258.452 450.973 258.705 450.831 259.287C449.504 259.827 442.1 257.904 440.55 257.506L440.27 256.584L440.385 256.055Z"/>
	<path fill="#F2F8FB" d="M458.486 281.795C459.636 281.859 463.139 281.62 463.919 282.184C464.183 283.232 464.182 283.463 463.897 284.505L463.409 284.841C461.337 284.767 458.971 284.852 457.335 283.52L457.46 282.213L458.486 281.795Z"/>
	<path fill="#00AF70" d="M452.028 275.893C453.875 277.683 455.349 279.837 457.12 281.7C457.446 282.044 457.359 281.869 457.46 282.213L457.335 283.52C457.309 284.134 457.283 284.086 456.829 284.511C454.213 283.494 453.238 278.803 451.822 276.551C451.77 276.467 451.715 276.385 451.662 276.302L452.028 275.893Z"/>
	<path fill="#F2F8FB" d="M456.817 294.347C458.257 293.242 461.625 293.79 463.375 294.019C463.521 294.258 463.624 294.385 463.655 294.668C462.026 295.434 459.164 295.058 457.341 295.031L456.817 294.347Z"/>
	<path fill="#00AF70" d="M451.662 276.302C451.037 275.191 449.917 273.63 450.125 272.351C451.219 273.161 451.703 274.614 452.028 275.893L451.662 276.302Z"/>
	<path fill="#1F3B72" d="M443.017 146.093C445.195 146.073 447.382 146.094 449.558 146.004C453.627 146.088 464.365 145.225 467.631 146.638C470.585 147.558 473.022 149.376 474.479 152.156C475.165 153.465 475.507 154.718 475.603 156.189C476.109 163.955 475.912 244.306 475.437 245.594C475.401 245.692 475.36 245.788 475.321 245.885C474.853 246.444 474.582 246.425 473.892 246.611C473.506 247.94 473.136 249.245 472.895 250.609L472.336 251.255L471.259 251.11C469.623 253.221 471.625 256.744 470.534 259.107C468.786 262.38 467.836 266.415 465.119 269.037C464.679 269.094 464.332 269.118 463.892 269.046C463.999 268.818 464.086 268.614 464.146 268.367C464.875 265.352 464.314 243.831 464.312 239.077C464.301 213.034 464.686 186.944 464.311 160.907C464.294 159.763 464.383 158.627 463.786 157.602L438.596 157.581C439.753 153.53 441.049 149.835 443.017 146.093Z"/>
	<path fill="#1A90F9" d="M533.799 253.792C534.785 254.117 535.422 254.498 535.904 255.456C536.201 256.045 536.526 256.849 536.471 257.518C539.535 259.261 541.659 265.726 542.567 269.028C543.341 271.841 543.826 274.734 544.558 277.561C545.733 282.097 548.462 288.187 548.059 292.846C547.819 295.618 545.682 298.3 545.594 300.915C544.122 303.942 542.431 309.821 540.442 312.216C540.12 313.228 539.998 313.281 539.132 313.918C538.129 312.915 535.829 312.205 534.446 311.766C534.975 310.618 535.125 309.79 534.82 308.555C535.013 308.385 535.097 308.327 535.256 308.093C535.785 307.316 535.649 306.751 535.546 305.881L535.343 305.41L530.498 304.675C527.22 304.45 523.957 303.865 520.67 303.613L520.791 302.817L519.985 302.011L519.72 300.895C518.657 300.373 519.731 293.992 519.032 292.369C519.487 292.049 519.787 291.8 519.955 291.247C520.569 289.215 520.829 283.37 519.947 281.531C522.569 277.343 520.176 262.612 523.278 259.739C524.115 259.282 525.36 258.406 525.677 257.49C527.784 257.329 532.027 255.004 533.799 253.792Z"/>
	<path fill="#1F3B72" d="M519.947 281.531C522.569 277.343 520.176 262.612 523.278 259.739C523.591 260.273 523.651 260.516 523.616 261.134C524.199 265.79 522.853 277.192 522.549 282.575C522.233 288.156 522.601 294.213 521.509 299.692C520.933 300.234 520.43 300.553 519.72 300.895C518.657 300.373 519.731 293.992 519.032 292.369C519.487 292.049 519.787 291.8 519.955 291.247C520.569 289.215 520.829 283.37 519.947 281.531Z"/>
	<path fill="#0077D0" d="M530.498 304.675C531.32 304.521 531.792 304.599 532.272 303.85C532.899 302.874 533.152 301.427 533.5 300.32C536.152 291.89 532.42 285.016 532.19 276.745C532.448 277.008 537.542 289.195 538.007 290.607C538.384 291.735 538.568 292.919 538.551 294.108C538.515 295.981 536.695 304.781 535.546 305.881L535.343 305.41L530.498 304.675Z"/>
	<path fill="#45A8F4" d="M533.799 253.792C534.785 254.117 535.422 254.498 535.904 255.456C536.201 256.045 536.526 256.849 536.471 257.518C531.953 256.893 527.125 262.016 523.616 261.134C523.651 260.516 523.591 260.273 523.278 259.739C524.115 259.282 525.36 258.406 525.677 257.49C527.784 257.329 532.027 255.004 533.799 253.792Z"/>
	<path fill="#00AF70" d="M454.494 113.447C454.608 113.379 454.724 113.315 454.836 113.243C456.218 112.357 458.316 109.347 459.653 108.002C467.502 100.106 476.422 96.6564 487.519 98.5694C489.902 98.9802 495.685 99.928 497.148 101.823C497.58 102.382 497.684 102.853 497.567 103.56C497.325 105.022 496.124 106.155 494.91 106.882C491.917 108.673 484.318 109.319 482.719 111.229C481.313 112.91 481.219 115.417 479.823 117.032C479.708 118.574 478.727 121.343 477.599 122.441C477.541 122.497 477.473 122.542 477.411 122.593C476.879 124.783 474.61 126.813 472.742 127.943C469.123 130.132 464.236 130.934 461.108 133.791C458.055 136.581 457.641 141.588 454.209 143.898C452.749 144.802 451.031 145.103 449.558 146.004C447.382 146.094 445.195 146.073 443.017 146.093C445.943 140.818 450.207 136.596 452.628 130.975C454.439 126.773 456.24 117.894 454.494 113.447Z"/>
	<path fill="#2DCC81" d="M454.209 143.898C457.641 141.588 458.055 136.581 461.108 133.791C464.236 130.934 469.123 130.132 472.742 127.943C474.61 126.813 476.879 124.783 477.411 122.593C477.457 122.635 477.501 122.681 477.55 122.721C478.887 123.824 484.553 123.986 486.699 124.451C489.941 125.153 502.255 128.687 502.598 132.18C502.688 133.098 502.395 133.656 501.757 134.286C496.441 139.528 488.208 135.914 482.301 138.064C479.19 139.197 477.77 143.14 474.978 144.804C472.683 146.172 469.297 145.515 467.631 146.638C464.365 145.225 453.627 146.088 449.558 146.004C451.031 145.103 452.749 144.802 454.209 143.898Z"/>
	<path fill="#0A2752" d="M519.442 232.146C523.053 230.16 527.334 229.177 531.416 230.33C534.797 231.286 537.596 234.584 539.215 237.57C540.578 240.085 540.57 242.698 539.757 245.397C538.99 247.94 537.315 250.586 534.962 251.934C534.513 252.191 533.987 252.354 533.497 252.511C533.639 252.952 533.776 253.324 533.799 253.792C532.027 255.004 527.784 257.329 525.677 257.49C526.012 256.164 526.413 254.765 525.722 253.5C524.18 252.667 522.338 252.323 520.648 251.884C520.807 251.448 520.932 251.02 520.932 250.553C520.933 248.885 520.147 246.938 518.949 245.788C519.256 245.482 519.436 245.239 519.619 244.839C520.277 243.401 520.764 241.834 520.238 240.331C519.996 240.057 519.628 239.872 519.321 239.673C519.464 239.48 519.594 239.33 519.693 239.115C520.482 237.388 520.134 233.866 519.442 232.146Z"/>
	<path fill="#F2B189" d="M520.238 240.331C521.857 240.523 523.555 240.631 525.123 241.076C525.723 242.153 525.747 243.287 525.399 244.462C525.312 244.759 525.201 245.025 525.077 245.308C526.571 244.967 529.013 243.955 530.398 244.763C531.041 245.137 531.239 245.62 531.415 246.312C532.023 248.708 531.904 250.463 533.497 252.511C533.639 252.952 533.776 253.324 533.799 253.792C532.027 255.004 527.784 257.329 525.677 257.49C526.012 256.164 526.413 254.765 525.722 253.5C524.18 252.667 522.338 252.323 520.648 251.884C520.807 251.448 520.932 251.02 520.932 250.553C520.933 248.885 520.147 246.938 518.949 245.788C519.256 245.482 519.436 245.239 519.619 244.839C520.277 243.401 520.764 241.834 520.238 240.331Z"/>
	<path fill="#00AF70" d="M470.534 259.107C472.272 259.766 473.978 260.084 475.808 260.386C476.86 260.635 477.474 260.629 478.236 261.464C478.788 264.443 476.388 268.042 475.588 270.938L475.483 271.364C475.427 271.419 475.371 271.473 475.317 271.529C470.382 276.614 471.492 278.273 463.919 282.184C463.139 281.62 459.636 281.859 458.486 281.795C457.619 280.038 458.054 274.708 457.742 272.296C457.462 270.137 456.816 268.065 456.43 265.928C458.808 266.862 461.26 270.709 463.622 270.77C464.051 270.063 463.95 269.851 463.892 269.046C464.332 269.118 464.679 269.094 465.119 269.037C467.836 266.415 468.786 262.38 470.534 259.107Z"/>
	<path fill="#0077D0" d="M501.409 285.508C503.341 283.887 515.874 283.616 519.947 281.531C520.829 283.37 520.569 289.215 519.955 291.247C519.787 291.8 519.487 292.049 519.032 292.369C517.831 291.587 504.53 292.066 501.456 291.483C501.484 291.421 501.517 291.362 501.54 291.299C502.091 289.785 502.135 286.941 501.409 285.508Z"/>
	<path fill="#1F3B72" d="M475.483 271.364C475.526 272.01 475.594 272.605 475.426 273.241C475.996 275.857 476.194 281.857 475.213 284.308C474.971 285.376 474.543 285.995 473.576 286.602C473.442 286.687 473.304 286.766 473.166 286.844L473.06 286.734C470.68 284.219 466.535 286.366 463.897 284.505C464.182 283.463 464.183 283.232 463.919 282.184C471.492 278.273 470.382 276.614 475.317 271.529C475.371 271.473 475.427 271.419 475.483 271.364Z"/>
	<path fill="#F2B189" d="M475.426 273.241L475.548 273.949C476.243 276.449 476.167 281.702 475.393 284.139C476.976 284.096 479.764 283.666 480.981 284.76C481.974 285.652 482.247 287.205 482.241 288.486C482.233 290.174 481.776 291.841 480.558 293.056C479.168 293.709 476.88 292.69 475.984 293.56C475.864 294.478 475.861 295.648 475.283 296.396C475.551 295.649 475.872 294.367 475.603 293.607C475.408 293.056 475.044 293.005 474.557 292.741C473.636 290.965 473.472 288.802 473.166 286.844C473.304 286.766 473.442 286.687 473.576 286.602C474.543 285.995 474.971 285.376 475.213 284.308C476.194 281.857 475.996 275.857 475.426 273.241Z"/>
	<path fill="#F2B189" d="M473.892 246.611C474.582 246.425 474.853 246.444 475.321 245.885L475.42 246.54C476.073 248.104 475.993 250.202 475.584 251.82C476.434 252.377 477.728 253.175 477.993 254.22C478.011 254.29 478.009 254.364 478.017 254.437C478.125 256.322 476.803 258.805 475.808 260.386C473.978 260.084 472.272 259.766 470.534 259.107C471.625 256.744 469.623 253.221 471.259 251.11L472.336 251.255L472.895 250.609C473.136 249.245 473.506 247.94 473.892 246.611Z"/>
	<path fill="#2B4B65" d="M473.892 246.611C474.582 246.425 474.853 246.444 475.321 245.885L475.42 246.54C475.752 247.967 475.951 250.003 475.408 251.377L474.954 251.399C474.303 250.046 474.911 248 474.129 246.913C474.054 246.809 473.971 246.712 473.892 246.611Z"/>
	<path fill="#D4DEEB" d="M492.016 285.158C493.206 284.897 494.388 284.492 495.585 284.86L495.948 285.209C496.375 286.769 497.37 286.9 498.388 288.029C498.683 289.044 498.461 289.776 498.189 290.761C498.335 290.915 498.494 291.131 498.68 291.232C498.733 292.089 498.852 292.29 498.232 292.949C497.515 293.712 495.969 294.413 494.966 294.713C494.626 293.46 493.843 292.73 492.987 291.811C491.842 289.658 491.981 287.518 492.016 285.158Z"/>
	<path fill="#F2B189" d="M492.016 285.158L493.021 285.433C493.75 287.023 493.663 289.171 493.651 290.894C493.439 291.202 493.24 291.535 492.987 291.811C491.842 289.658 491.981 287.518 492.016 285.158Z"/>
	<path fill="#D4DEEB" d="M475.588 270.938L476.146 271.536C477.473 271.166 478.511 269.597 479.603 268.674C484.586 264.465 490.09 260.795 493.401 254.995C495.062 252.085 496.156 244.178 496.847 243.424C497.879 245.375 496.589 249.197 495.977 251.195C493.37 259.701 487.133 263.386 481.014 269.035C479.42 270.506 477.887 272.735 475.971 273.742C475.832 273.815 475.692 273.886 475.548 273.949L475.426 273.241C475.594 272.605 475.526 272.01 475.483 271.364L475.588 270.938Z"/>
	<path fill="#F2B189" d="M495.948 285.209L501.409 285.508C502.135 286.941 502.091 289.785 501.54 291.299C501.517 291.362 501.484 291.421 501.456 291.483C500.482 291.039 499.712 291.149 498.68 291.232C498.494 291.131 498.335 290.915 498.189 290.761C498.461 289.776 498.683 289.044 498.388 288.029C497.37 286.9 496.375 286.769 495.948 285.209Z"/>
	<path fill="#1F3B72" d="M519.442 232.146C520.134 233.866 520.482 237.388 519.693 239.115C519.594 239.33 519.464 239.48 519.321 239.673C518.533 238.667 517.793 237.641 517.641 236.324C517.456 234.713 518.544 233.355 519.442 232.146Z"/>
	<path fill="#9C96DB" d="M493.514 281.043C494.186 280.933 494.876 280.809 495.558 280.772C496.991 280.695 498.648 281.303 499.691 282.297C499.932 282.527 499.832 282.774 499.832 283.093C498.967 283.594 498.581 283.531 497.598 283.551C496.466 283.591 495.313 283.659 494.18 283.629C493.28 283.605 492.825 283.564 492.194 282.923C492.433 282.018 492.885 281.691 493.514 281.043Z"/>
	<path fill="#D4DEEB" d="M562.378 248.394L563.383 248.616C563.484 248.944 563.552 249.181 563.558 249.527C563.602 252.086 561.754 258.331 560.002 260.276C558.978 259.379 563.128 250.936 562.378 248.394Z"/>
	<path fill="#0A2752" d="M435.326 311.315C435.306 310.238 435.319 309.193 435.414 308.117C436.646 307.373 438.681 307.074 440.11 306.807C445.841 305.737 449.861 307.313 455.038 309.517C455.65 309.778 456.897 310.5 457.505 310.537C458.137 310.575 458.503 310.042 459.334 310.19C461.69 314.629 465.243 340.953 464.972 346.826C465.229 347.395 465.396 347.964 465.422 348.591C465.552 351.734 464.944 374.047 464.435 375.322C464.278 375.717 464.073 376.024 463.807 376.351C464.843 377.065 465.941 377.898 467.085 378.423C469.748 379.644 473.977 380.188 475.97 382.412L475.983 383.004C473.132 385.221 464.252 383.712 460.605 383.646C459.021 383.618 457.464 383.837 455.88 383.724C456.546 378.284 454.109 376.54 453.532 372.113C452.686 365.63 453.843 351.866 451.002 346.742C451.068 347.451 443.312 375.556 442.344 377.563C439.525 377.336 436.663 377.301 433.836 377.178C433.511 376.784 433.174 376.373 432.938 375.918C432.279 374.648 435.396 351.492 436.117 348.858C436.192 346.852 436.245 344.846 436.277 342.838C435.879 332.333 435.562 321.825 435.326 311.315Z"/>
	<path fill="#0A2752" d="M170.317 312.245C173.079 312.706 176.248 312.88 178.89 313.749C182.126 314.815 187.947 320.062 191.138 317.788C192.743 316.645 193.596 314.205 194.257 312.43C195.351 313.964 195.782 316.086 196.33 317.875C199.787 328.914 202.955 340.267 206.962 351.11L207.251 352.161C208.577 357.035 209.956 362.004 211.579 366.786C211.918 368.018 212.447 369.34 212.05 370.606L211.354 371.546C210.315 371.18 207.099 372.738 205.921 373.158C201.366 369.775 196.049 352.95 192.895 350.971C185.748 351.42 178.286 351.244 171.123 351.108C169.101 354.528 159.449 370.49 156.495 371.412C154.734 370.396 153.086 369.256 151.423 368.091C151.102 364.837 155.941 354.764 157.34 351.385C160.475 343.515 162.977 340.314 164.919 331.335C166.121 328.514 166.77 324.74 167.345 321.711C168.274 318.537 169.264 315.381 170.317 312.245Z"/>
	<path fill="#F2F8FB" d="M181.757 329.76C183.404 334.136 185.55 338.192 188.079 342.12C189.82 344.824 191.85 347.519 193.207 350.435C193.12 350.602 193.03 350.841 192.895 350.971C185.748 351.42 178.286 351.244 171.123 351.108C175.017 344.167 178.706 337.118 181.757 329.76Z"/>
	<path fill="#0A2752" d="M151.423 368.091C153.086 369.256 154.734 370.396 156.495 371.412L155.323 372.852L155.926 373.485C156.351 375.172 153.985 378.042 153.153 379.577C154.428 381.434 157.411 384.208 157.153 386.477L156.455 386.76C153.524 386.46 146.984 381.988 144.557 380.161C145.313 379.152 146.126 378.112 146.72 376.999C147.81 374.958 148.473 371.343 150.194 369.924C150.946 369.48 151.108 368.875 151.423 368.091Z"/>
	<path fill="#F2B189" d="M151.423 368.091C153.086 369.256 154.734 370.396 156.495 371.412L155.323 372.852C155.071 373.104 154.817 373.109 154.457 373.097C152.796 373.039 151.122 371.129 150.194 369.924C150.946 369.48 151.108 368.875 151.423 368.091Z"/>
	<path fill="#0A2752" d="M205.921 373.158C207.099 372.738 210.315 371.18 211.354 371.546L212.167 372.838C213.031 373.214 213.577 373.354 214.004 374.276C214.844 376.086 214.583 377.538 216.712 378.567C218.791 379.573 221.428 378.326 223.275 379.308C223.43 379.837 223.598 379.939 223.323 380.459C222.48 382.054 215.01 384.984 213.073 385.418C212.419 385.565 212.001 385.472 211.381 385.252C211.013 384.863 206.486 376.564 206.409 376.155L206.621 375.21C206.595 374.421 206.269 373.854 205.921 373.158Z"/>
	<path fill="#F2B189" d="M205.921 373.158C207.099 372.738 210.315 371.18 211.354 371.546L212.167 372.838C210.909 374.078 209.531 375.251 207.66 375.327C207.302 375.342 206.971 375.275 206.621 375.21C206.595 374.421 206.269 373.854 205.921 373.158Z"/>
	<path fill="#0A2752" d="M433.836 377.178C436.663 377.301 439.525 377.336 442.344 377.563C444.262 381.661 449.391 381.63 452.39 384.424C452.946 384.942 453.002 385.024 453.031 385.768C452.823 385.941 452.751 386.021 452.528 386.141C450.394 387.28 436.732 385.092 433.887 384.143C432.892 382.25 433.589 379.244 433.836 377.178Z"/>
	<path fill="#0A2752" d="M555.929 374.19C557.03 375.123 557.925 377.408 558.07 378.827C558.164 379.804 557.838 380.774 557.173 381.496C555.656 383.132 553.938 382.713 552.119 383.45C548.487 384.92 545.669 386.747 541.527 386.674C540.721 386.66 539.999 386.518 539.245 386.242L538.877 385.675C540.251 382.202 547.979 381.334 547.95 377.231L547.325 376.561C548.37 376.596 549.439 376.515 550.483 376.461C551.945 376.385 555.177 376.362 556.209 375.22L555.929 374.19Z"/>
	<path fill="#D4DEEB" fill-opacity="0.97254902" d="M493.286 336.122C494.396 335.815 495.201 335.699 496.328 335.978C496.843 338.779 498.548 349.209 497.096 351.341C496.561 351.02 496.5 350.897 496.334 350.274C495.498 347.133 497.145 338.062 494.46 336.194L493.286 336.122Z"/>
	<path fill="#7E77C5" fill-opacity="0.87843138" d="M571.401 341.254L572.377 341.194L572.205 341.914C572.102 344.775 571.002 347.981 570.179 350.718L570.02 350.519C570.234 347.555 571.025 344.758 571.331 341.829L571.354 341.591L571.401 341.254Z"/>
	<path fill="#F2F8FB" fill-opacity="0.035294119" d="M498.749 331.062C498.621 331.782 498.097 332.751 497.621 333.316C497.133 333.895 496.809 334.01 496.079 334.053L495.995 333.431C496.462 332.221 497.478 331.459 498.423 330.625L498.749 331.062Z"/>
</svg>
